<?xml version="1.0" encoding="utf-8"?>
<!-- Generator: Adobe Illustrator 26.0.1, SVG Export Plug-In . SVG Version: 6.00 Build 0)  -->
<svg version="1.1" id="Layer_1" xmlns="http://www.w3.org/2000/svg" xmlns:xlink="http://www.w3.org/1999/xlink" x="0px" y="0px"
	 viewBox="0 0 576 432" style="enable-background:new 0 0 576 432;" xml:space="preserve">
<style type="text/css">
	.st0{fill:#FFFFFF;}
</style>
<rect y="0" width="576" height="432"/>
<g>
	<path class="st0" d="M84.17,300.23c-0.69,0.36-2.14,0.71-3.97,0.71c-4.24,0-7.4-2.68-7.4-7.6c0-4.7,3.19-7.87,7.85-7.87
		c1.85,0,3.05,0.4,3.57,0.65l-0.49,1.6c-0.71-0.36-1.76-0.62-3.01-0.62c-3.52,0-5.86,2.25-5.86,6.17c0,3.68,2.12,6.02,5.75,6.02
		c1.2,0,2.41-0.25,3.19-0.62L84.17,300.23z"/>
	<path class="st0" d="M86.6,285.7h1.96v13.4h6.42v1.63H86.6V285.7z"/>
	<path class="st0" d="M104.91,293.68h-5.82v5.42h6.51v1.63h-8.47V285.7h8.14v1.63h-6.18v4.75h5.82V293.68z"/>
	<path class="st0" d="M110.55,296l-1.56,4.73h-2.01l5.1-15.02h2.34l5.13,15.02h-2.07l-1.6-4.73H110.55z M115.48,294.48l-1.49-4.32
		c-0.31-0.98-0.54-1.87-0.76-2.74h-0.07c-0.2,0.87-0.45,1.8-0.74,2.72l-1.47,4.35H115.48z"/>
	<path class="st0" d="M121.77,285.92c0.98-0.2,2.41-0.33,3.72-0.33c2.07,0,3.43,0.4,4.37,1.25c0.74,0.65,1.18,1.67,1.18,2.85
		c0,1.96-1.27,3.28-2.83,3.81v0.07c1.14,0.4,1.83,1.47,2.21,3.03c0.49,2.1,0.85,3.54,1.14,4.12h-2.01
		c-0.25-0.45-0.58-1.72-0.98-3.59c-0.45-2.07-1.27-2.85-3.03-2.92h-1.83v6.51h-1.94V285.92z M123.71,292.74h1.98
		c2.07,0,3.39-1.14,3.39-2.85c0-1.94-1.4-2.79-3.45-2.79c-0.94,0-1.58,0.09-1.92,0.18V292.74z"/>
	<path class="st0" d="M132.43,303.49c0.49-1.34,1.09-3.72,1.34-5.35l2.18-0.22c-0.53,1.9-1.52,4.37-2.14,5.42L132.43,303.49z"/>
	<path class="st0" d="M153.59,300.23c-0.69,0.36-2.14,0.71-3.97,0.71c-4.24,0-7.4-2.68-7.4-7.6c0-4.7,3.19-7.87,7.85-7.87
		c1.85,0,3.05,0.4,3.57,0.65l-0.49,1.6c-0.71-0.36-1.76-0.62-3.01-0.62c-3.52,0-5.86,2.25-5.86,6.17c0,3.68,2.12,6.02,5.75,6.02
		c1.2,0,2.41-0.25,3.19-0.62L153.59,300.23z"/>
	<path class="st0" d="M161.44,300.97c-3.99,0-6.75-3.08-6.75-7.62c0-4.77,2.94-7.89,6.96-7.89c4.12,0,6.78,3.14,6.78,7.6
		c0,5.15-3.14,7.91-6.96,7.91H161.44z M161.55,299.39c3.08,0,4.81-2.83,4.81-6.24c0-2.99-1.56-6.11-4.79-6.11
		c-3.23,0-4.84,3.01-4.84,6.26c0,3.17,1.74,6.09,4.79,6.09H161.55z"/>
	<path class="st0" d="M170.94,300.72V285.7h2.14l4.79,7.6c1.09,1.76,1.98,3.34,2.67,4.88l0.07-0.02c-0.18-2.01-0.22-3.83-0.22-6.15
		v-6.31h1.83v15.02h-1.96l-4.77-7.62c-1.05-1.67-2.05-3.39-2.79-5.02l-0.07,0.02c0.11,1.89,0.13,3.7,0.13,6.2v6.42H170.94z"/>
	<path class="st0" d="M196.09,300.23c-0.69,0.36-2.14,0.71-3.97,0.71c-4.24,0-7.4-2.68-7.4-7.6c0-4.7,3.19-7.87,7.85-7.87
		c1.85,0,3.05,0.4,3.57,0.65l-0.49,1.6c-0.71-0.36-1.76-0.62-3.01-0.62c-3.52,0-5.86,2.25-5.86,6.17c0,3.68,2.12,6.02,5.75,6.02
		c1.2,0,2.41-0.25,3.19-0.62L196.09,300.23z"/>
	<path class="st0" d="M200.49,285.7v15.02h-1.96V285.7H200.49z"/>
	<path class="st0" d="M203.64,298.36c0.87,0.54,2.12,0.96,3.46,0.96c1.98,0,3.14-1.03,3.14-2.54c0-1.4-0.8-2.23-2.83-2.99
		c-2.45-0.85-3.97-2.14-3.97-4.23c0-2.34,1.94-4.08,4.86-4.08c1.52,0,2.65,0.36,3.3,0.71l-0.54,1.6c-0.47-0.29-1.47-0.71-2.83-0.71
		c-2.05,0-2.83,1.23-2.83,2.25c0,1.38,0.91,2.07,2.99,2.88c2.54,1,3.81,2.21,3.81,4.41c0,2.3-1.69,4.33-5.24,4.33
		c-1.45,0-3.03-0.45-3.83-0.98L203.64,298.36z"/>
	<path class="st0" d="M222.63,293.68h-5.82v5.42h6.51v1.63h-8.47V285.7h8.14v1.63h-6.17v4.75h5.82V293.68z"/>
	<path class="st0" d="M224.42,303.49c0.49-1.34,1.09-3.72,1.34-5.35l2.18-0.22c-0.53,1.9-1.52,4.37-2.14,5.42L224.42,303.49z"/>
	<path class="st0" d="M245.58,300.23c-0.69,0.36-2.14,0.71-3.97,0.71c-4.24,0-7.4-2.68-7.4-7.6c0-4.7,3.19-7.87,7.85-7.87
		c1.85,0,3.05,0.4,3.57,0.65l-0.49,1.6c-0.71-0.36-1.76-0.62-3.01-0.62c-3.52,0-5.86,2.25-5.86,6.17c0,3.68,2.12,6.02,5.75,6.02
		c1.2,0,2.41-0.25,3.19-0.62L245.58,300.23z"/>
	<path class="st0" d="M253.43,300.97c-3.99,0-6.75-3.08-6.75-7.62c0-4.77,2.94-7.89,6.96-7.89c4.12,0,6.78,3.14,6.78,7.6
		c0,5.15-3.14,7.91-6.96,7.91H253.43z M253.54,299.39c3.08,0,4.82-2.83,4.82-6.24c0-2.99-1.56-6.11-4.79-6.11
		c-3.23,0-4.84,3.01-4.84,6.26c0,3.17,1.74,6.09,4.79,6.09H253.54z"/>
	<path class="st0" d="M264.87,285.7v6.29h7.27v-6.29h1.96v15.02h-1.96v-7.04h-7.27v7.04h-1.96V285.7H264.87z"/>
	<path class="st0" d="M285.23,293.68h-5.82v5.42h6.51v1.63h-8.47V285.7h8.14v1.63h-6.18v4.75h5.82V293.68z"/>
	<path class="st0" d="M288.44,285.92c0.98-0.2,2.41-0.33,3.72-0.33c2.07,0,3.43,0.4,4.37,1.25c0.74,0.65,1.18,1.67,1.18,2.85
		c0,1.96-1.27,3.28-2.83,3.81v0.07c1.14,0.4,1.83,1.47,2.21,3.03c0.49,2.1,0.85,3.54,1.14,4.12h-2.01
		c-0.24-0.45-0.58-1.72-0.98-3.59c-0.45-2.07-1.27-2.85-3.03-2.92h-1.83v6.51h-1.94V285.92z M290.38,292.74h1.98
		c2.07,0,3.39-1.14,3.39-2.85c0-1.94-1.4-2.79-3.45-2.79c-0.94,0-1.58,0.09-1.92,0.18V292.74z"/>
	<path class="st0" d="M308.2,293.68h-5.82v5.42h6.51v1.63h-8.47V285.7h8.14v1.63h-6.18v4.75h5.82V293.68z"/>
	<path class="st0" d="M311.41,300.72V285.7h2.14l4.79,7.6c1.09,1.76,1.98,3.34,2.68,4.88l0.07-0.02c-0.18-2.01-0.22-3.83-0.22-6.15
		v-6.31h1.83v15.02h-1.96l-4.77-7.62c-1.05-1.67-2.05-3.39-2.79-5.02l-0.07,0.02c0.11,1.89,0.13,3.7,0.13,6.2v6.42H311.41z"/>
	<path class="st0" d="M328.94,287.35h-4.57v-1.65h11.12v1.65h-4.59v13.38h-1.96V287.35z"/>
	<path class="st0" d="M334.49,303.49c0.49-1.34,1.09-3.72,1.34-5.35l2.18-0.22c-0.54,1.9-1.51,4.37-2.14,5.42L334.49,303.49z"/>
	<path class="st0" d="M355.65,300.23c-0.69,0.36-2.14,0.71-3.97,0.71c-4.24,0-7.4-2.68-7.4-7.6c0-4.7,3.19-7.87,7.85-7.87
		c1.85,0,3.05,0.4,3.57,0.65l-0.49,1.6c-0.71-0.36-1.76-0.62-3.01-0.62c-3.52,0-5.86,2.25-5.86,6.17c0,3.68,2.12,6.02,5.75,6.02
		c1.2,0,2.41-0.25,3.19-0.62L355.65,300.23z"/>
	<path class="st0" d="M363.5,300.97c-3.99,0-6.75-3.08-6.75-7.62c0-4.77,2.94-7.89,6.95-7.89c4.12,0,6.78,3.14,6.78,7.6
		c0,5.15-3.14,7.91-6.96,7.91H363.5z M363.62,299.39c3.08,0,4.82-2.83,4.82-6.24c0-2.99-1.56-6.11-4.79-6.11
		c-3.23,0-4.84,3.01-4.84,6.26c0,3.17,1.74,6.09,4.79,6.09H363.62z"/>
	<path class="st0" d="M385.67,294.12c-0.11-2.07-0.25-4.64-0.25-6.49h-0.04c-0.54,1.74-1.14,3.66-1.9,5.71l-2.65,7.29h-1.47
		l-2.45-7.16c-0.71-2.12-1.29-4.06-1.72-5.84h-0.04c-0.04,1.87-0.16,4.39-0.29,6.64l-0.4,6.44h-1.85l1.05-15.02h2.48l2.56,7.27
		c0.62,1.85,1.11,3.52,1.51,5.08h0.05c0.4-1.51,0.94-3.19,1.6-5.08l2.68-7.27H387l0.94,15.02h-1.92L385.67,294.12z"/>
	<path class="st0" d="M390.93,285.9c0.94-0.18,2.16-0.31,3.72-0.31c1.92,0,3.32,0.45,4.21,1.25c0.82,0.71,1.34,1.8,1.34,3.12
		c0,1.36-0.4,2.43-1.18,3.21c-1.03,1.09-2.7,1.65-4.59,1.65c-0.58,0-1.11-0.02-1.56-0.13v6.04h-1.94V285.9z M392.87,293.1
		c0.42,0.11,0.96,0.16,1.61,0.16c2.34,0,3.77-1.14,3.77-3.19c0-1.98-1.4-2.94-3.54-2.94c-0.85,0-1.49,0.07-1.83,0.16V293.1z"/>
	<path class="st0" d="M402.8,285.92c0.98-0.2,2.41-0.33,3.72-0.33c2.07,0,3.43,0.4,4.37,1.25c0.74,0.65,1.18,1.67,1.18,2.85
		c0,1.96-1.27,3.28-2.83,3.81v0.07c1.14,0.4,1.83,1.47,2.21,3.03c0.49,2.1,0.85,3.54,1.14,4.12h-2.01
		c-0.24-0.45-0.58-1.72-0.98-3.59c-0.45-2.07-1.27-2.85-3.03-2.92h-1.83v6.51h-1.94V285.92z M404.74,292.74h1.98
		c2.07,0,3.39-1.14,3.39-2.85c0-1.94-1.4-2.79-3.45-2.79c-0.94,0-1.58,0.09-1.92,0.18V292.74z"/>
	<path class="st0" d="M422.55,293.68h-5.82v5.42h6.51v1.63h-8.47V285.7h8.14v1.63h-6.18v4.75h5.82V293.68z"/>
	<path class="st0" d="M427.71,285.7v6.29h7.27v-6.29h1.96v15.02h-1.96v-7.04h-7.27v7.04h-1.96V285.7H427.71z"/>
	<path class="st0" d="M448.07,293.68h-5.82v5.42h6.51v1.63h-8.47V285.7h8.14v1.63h-6.18v4.75h5.82V293.68z"/>
	<path class="st0" d="M451.28,300.72V285.7h2.14l4.79,7.6c1.09,1.76,1.98,3.34,2.68,4.88l0.07-0.02c-0.18-2.01-0.22-3.83-0.22-6.15
		v-6.31h1.83v15.02h-1.96l-4.77-7.62c-1.05-1.67-2.05-3.39-2.79-5.02l-0.07,0.02c0.11,1.89,0.13,3.7,0.13,6.2v6.42H451.28z"/>
	<path class="st0" d="M465.71,298.36c0.87,0.54,2.12,0.96,3.45,0.96c1.98,0,3.14-1.03,3.14-2.54c0-1.4-0.8-2.23-2.83-2.99
		c-2.45-0.85-3.97-2.14-3.97-4.23c0-2.34,1.94-4.08,4.86-4.08c1.51,0,2.65,0.36,3.3,0.71l-0.54,1.6c-0.47-0.29-1.47-0.71-2.83-0.71
		c-2.05,0-2.83,1.23-2.83,2.25c0,1.38,0.91,2.07,2.99,2.88c2.54,1,3.81,2.21,3.81,4.41c0,2.3-1.69,4.33-5.24,4.33
		c-1.45,0-3.03-0.45-3.83-0.98L465.71,298.36z"/>
	<path class="st0" d="M478.89,285.7v15.02h-1.96V285.7H478.89z"/>
	<path class="st0" d="M485.58,300.72l-4.93-15.02h2.12l2.34,7.4c0.62,2.03,1.18,3.88,1.6,5.62h0.04c0.42-1.74,1.03-3.63,1.72-5.59
		l2.54-7.42h2.07l-5.37,15.02H485.58z"/>
	<path class="st0" d="M502.48,293.68h-5.82v5.42h6.51v1.63h-8.47V285.7h8.14v1.63h-6.18v4.75h5.82V293.68z"/>
</g>
<rect x="85.61" y="245.16" class="st0" width="10.34" height="21.86"/>
<rect x="72" y="259.15" class="st0" width="10.34" height="17.77"/>
<polygon class="st0" points="99.22,240.89 99.22,267.01 99.22,270.28 99.22,276.56 109.57,276.56 109.57,240.89 "/>
<rect x="112.83" y="216.36" class="st0" width="10.34" height="41.15"/>
<rect x="126.44" y="217.99" class="st0" width="10.34" height="58.56"/>
<rect x="140.05" y="187.56" class="st0" width="10.34" height="71.16"/>
<rect x="153.66" y="189.19" class="st0" width="10.34" height="87.36"/>
<rect x="208.11" y="173.16" class="st0" width="10.34" height="43.96"/>
<rect x="248.94" y="128.51" class="st0" width="10.34" height="36.56"/>
<rect x="235.33" y="152.85" class="st0" width="10.34" height="47.48"/>
<rect x="480.05" y="253.66" class="st0" width="10.34" height="22.9"/>
<rect x="493.66" y="260.14" class="st0" width="10.34" height="16.42"/>
<rect x="466.43" y="230.76" class="st0" width="10.34" height="28.67"/>
<rect x="452.82" y="237.59" class="st0" width="10.34" height="38.96"/>
<rect x="439.21" y="201.96" class="st0" width="10.34" height="21.68"/>
<rect x="425.6" y="205.59" class="st0" width="10.34" height="55.27"/>
<rect x="411.99" y="184.37" class="st0" width="10.34" height="46.05"/>
<rect x="303.11" y="152.73" class="st0" width="10.34" height="44.8"/>
<circle class="st0" cx="227.21" cy="222.33" r="4.2"/>
<circle class="st0" cx="241.31" cy="222.33" r="4.2"/>
<path class="st0" d="M395.87,255.75c0.92,0.13,1.77,0.51,2.51,1.06v-2.09C397.65,255.26,396.78,255.62,395.87,255.75z"/>
<path class="st0" d="M383.83,225.64c0.31,0.11,0.63,0.22,0.94,0.34v-1.51C384.48,224.88,384.17,225.26,383.83,225.64z"/>
<path class="st0" d="M172.45,268.14h3.91v-28.66h-3.91c-2.4,0-4.44-1.56-5.17-3.71v36.09C168,269.69,170.04,268.14,172.45,268.14z"
	/>
<path class="st0" d="M172.45,225.6h5.17v-38.04h-10.34v41.75C168,227.15,170.04,225.6,172.45,225.6z"/>
<path class="st0" d="M197.37,226.96c2.58-1.52,5.18-2.05,7.47-2.1v-24.06H194.5v24.25c0.73,0.2,1.42,0.55,2.03,1.04
	C196.84,226.35,197.12,226.64,197.37,226.96z"/>
<path class="st0" d="M232.06,215.09v-34.93h-10.34v35.41c1.5-1.22,3.41-1.96,5.49-1.96C229,213.61,230.67,214.15,232.06,215.09z"/>
<path class="st0" d="M249.53,225.19c2.48,0.52,4.35,2.71,4.35,5.35v6.32h0.73c1.5,0,2.84,0.67,3.76,1.71v-31.21h-2.81
	c-3.02,0-5.46-2.45-5.46-5.46v-2.95c0-3.02,2.45-5.46,5.46-5.46h3.72v-5.43h-10.34v30.07c0.69,1.25,1.09,2.68,1.09,4.21
	C250.03,223.33,249.85,224.29,249.53,225.19z"/>
<path class="st0" d="M280.59,198.07v7.98h5.82v-48.95h-10.34v35.59c0.88,0.15,1.73,0.52,2.45,1.09
	C279.83,194.82,280.59,196.4,280.59,198.07z"/>
<path class="st0" d="M398.38,239.53c1.29,3.14,2.03,6.67,2.19,10.58c0,0.09,0,0.19,0,0.28h8.15v-39.66h-10.34V239.53z"/>
<path class="st0" d="M384.77,224.47v1.51c2.83,1.17,5.47,2.89,7.88,5.16c0.91,0.86,1.71,1.8,2.47,2.77v-35.85h-10.34v11.18
	c1.52,2.15,2.43,4.77,2.43,7.61S386.3,222.32,384.77,224.47z"/>
<path class="st0" d="M381.5,206.01V166.5h-10.34v37.5c0.92-0.2,1.88-0.32,2.86-0.32C376.8,203.67,379.38,204.54,381.5,206.01z"/>
<path class="st0" d="M327.06,203.38v-37.66h-10.34v51.37c1.62-1.36,3.25-2.34,4.84-3.05c1.25-3.94,3.02-7.45,5.36-10.48
	C326.96,203.5,327.01,203.44,327.06,203.38z"/>
<path class="st0" d="M354.28,193.88v-37.77h-10.34v36.74c1.14-0.16,2.3-0.25,3.48-0.25C349.88,192.61,352.17,193.04,354.28,193.88z"
	/>
<path class="st0" d="M272.89,192.95v-40.09h-10.34v40.62h0.95C268.41,193.47,271.25,193.22,272.89,192.95z"/>
<path class="st0" d="M216.92,231.5c0.47-0.57,0.98-1.11,1.53-1.64v-9.47h-10.34v4.72c2.56,0.49,4.81,1.65,6.61,3.44
	C215.61,229.45,216.34,230.44,216.92,231.5z"/>
<path class="st0" d="M245.67,214.79v-11.2h-10.34V216c1.56-1.48,3.67-2.39,5.98-2.39C242.9,213.61,244.39,214.04,245.67,214.79z"/>
<path class="st0" d="M398.38,254.72v2.09c0.36,0.27,0.71,0.57,1,0.93c1.04,1.29,1.43,2.99,1.07,4.6c-0.51,2.32-1.22,4.44-2.07,6.4
	v7.82h10.34v-22.9h-9.27c-0.12,0.16-0.25,0.32-0.39,0.46C398.85,254.34,398.62,254.54,398.38,254.72z"/>
<rect x="85.61" y="270.28" class="st0" width="10.34" height="6.28"/>
<rect x="99.22" y="230.76" class="st0" width="10.34" height="6.87"/>
<rect x="112.83" y="260.78" class="st0" width="10.34" height="15.78"/>
<rect x="126.44" y="201.96" class="st0" width="10.34" height="12.77"/>
<rect x="140.05" y="261.99" class="st0" width="10.34" height="14.57"/>
<rect x="153.66" y="173.16" class="st0" width="10.34" height="12.77"/>
<rect x="180.88" y="201.96" class="st0" width="10.34" height="18"/>
<rect x="194.5" y="187.56" class="st0" width="10.34" height="9.96"/>
<rect x="221.72" y="158.76" class="st0" width="10.34" height="18.12"/>
<rect x="248.94" y="168.34" class="st0" width="10.34" height="16.44"/>
<rect x="235.33" y="140.29" class="st0" width="10.34" height="9.29"/>
<rect x="480.05" y="245.16" class="st0" width="10.34" height="5.23"/>
<rect x="466.43" y="262.7" class="st0" width="10.34" height="13.86"/>
<rect x="452.82" y="216.36" class="st0" width="10.34" height="17.97"/>
<rect x="439.21" y="226.91" class="st0" width="10.34" height="17.48"/>
<rect x="439.21" y="247.65" class="st0" width="10.34" height="28.9"/>
<rect x="425.6" y="187.56" class="st0" width="10.34" height="14.76"/>
<rect x="425.6" y="264.12" class="st0" width="10.34" height="12.43"/>
<rect x="398.38" y="187.56" class="st0" width="10.34" height="19.9"/>
<rect x="411.99" y="233.69" class="st0" width="10.34" height="42.86"/>
<rect x="411.99" y="173.16" class="st0" width="10.34" height="7.94"/>
<rect x="384.77" y="180.9" class="st0" width="10.34" height="13.9"/>
<path class="st0" d="M364.06,206.98c0,0.45-0.03,0.9-0.08,1.34c1.09-1.28,2.41-2.35,3.91-3.13v-35.12h-10.34v25.52
	c0.37,0.25,0.73,0.5,1.08,0.78C363.12,199.88,364.06,204.08,364.06,206.98z"/>
<rect x="357.55" y="152.1" class="st0" width="10.34" height="14.71"/>
<rect x="316.72" y="152.73" class="st0" width="10.34" height="9.72"/>
<rect x="289.59" y="152.73" class="st0" width="10.34" height="13.46"/>
<polygon class="st0" points="354.28,136.59 345.51,136.59 343.94,136.59 343.94,152.73 343.94,152.85 354.28,152.85 "/>
<path class="st0" d="M340.67,152.73v-12.44h-10.34v12.44v47c3.13-3.01,6.58-5.07,10.34-6.17V152.73z"/>
<polygon class="st0" points="272.89,140.29 271.3,140.29 262.55,140.29 262.55,149.59 272.89,149.59 "/>
<circle class="st0" cx="374.02" cy="216.86" r="7.72"/>
<g>
	<g>
		<g>
			<g>
				<path class="st0" d="M206.83,243.74c1.81,0,3.29-0.57,4.43-1.71c1.14-1.14,1.71-2.63,1.71-4.49c0-2.01-0.7-3.71-2.11-5.12
					c-1.41-1.41-3.27-2.11-5.59-2.11c-5.29,0-9.28,3.65-11.98,10.94h-0.23v-10.94c-2.55,0.5-6.25,0.75-11.11,0.75h-9.49v2.95h9.38
					v39.59h-9.38v2.95h30.21v-2.95h-9.61v-17.77c0-7.06,0.98-12.31,2.95-15.74c1.97-3.43,3.59-5.15,4.86-5.15
					c0.81,0,1.22,0.44,1.22,1.33l-0.23,2.49C201.85,242.08,203.51,243.74,206.83,243.74z"/>
			</g>
			<g>
				<path class="st0" d="M234.76,246.46c-5.25-0.7-8.58-1.53-9.98-2.52c-1.41-0.98-2.11-2.32-2.11-4.02c0-2.01,0.99-3.79,2.98-5.35
					c1.99-1.56,4.47-2.34,7.44-2.34c6.87,0,11.19,3.76,12.96,11.29h2.37v-12.97h-1.79c-0.81,1.51-1.6,2.66-2.37,3.47
					c-3.01-2.93-6.73-4.4-11.17-4.4c-4.21,0-7.77,1.34-10.68,4.02c-2.91,2.68-4.37,6.01-4.37,9.98c0,8.07,5.42,12.89,16.27,14.47
					c6.37,0.93,10.27,1.93,11.72,3.01c1.45,1.08,2.17,2.68,2.17,4.8c0,2.55-1.22,4.77-3.65,6.66c-2.43,1.89-5.13,2.84-8.1,2.84
					c-7.83,0-13.41-5.46-16.73-16.38h-2.03v17.08h2.03l4.05-3.47c4.09,3.59,8.31,5.38,12.68,5.38c4.44,0,8.15-1.51,11.14-4.52
					c2.99-3.01,4.49-6.77,4.49-11.29C252.06,253.13,246.29,247.89,234.76,246.46z"/>
			</g>
			<g>
				<path class="st0" d="M275.13,198.07c-2.43,0.58-6.31,0.87-11.63,0.87h-7.93v2.95h8.28v71.71h-8.28v2.95h27.72v-2.95h-8.16
					V198.07z"/>
			</g>
			<g>
				<path class="st0" d="M336.31,231.06v-9.72c0-5.86,0.21-10.12,0.64-12.76c0.42-2.64,1.6-4.62,3.53-5.93
					c1.93-1.31,3.97-1.97,6.14-1.97c2.24,0,3.94,0.52,5.09,1.56c-2.55,1.5-3.82,3.4-3.82,5.67c0,1.47,0.5,2.68,1.51,3.65
					c1,0.96,2.2,1.45,3.59,1.45c1.62,0,2.96-0.58,4.02-1.74c1.06-1.16,1.59-2.58,1.59-4.28c0-2.47-1.11-4.57-3.33-6.31
					c-2.22-1.74-4.83-2.61-7.84-2.61c-6.25,0-11.64,2.94-16.18,8.83c-4.53,5.88-6.65,13.94-6.34,24.17h-9.61v2.95h9.61v39.59h-8.62
					v2.95h29.75v-2.95h-9.72v-39.59h10.76v-2.95H336.31z"/>
			</g>
		</g>
	</g>
	<path class="st0" d="M376.01,275.4c-3.97,0-6.73-1.32-8.28-3.97c-1.54-2.64-2.18-9.67-1.91-21.1h29.29
		c-0.27-6.48-2.34-11.56-6.22-15.22c-3.88-3.67-8.4-5.5-13.57-5.5c-5.94,0-11.16,2.32-15.66,6.95c-4.5,4.63-6.74,10.34-6.74,17.13
		c0,6.98,2.29,12.78,6.89,17.39c4.59,4.61,9.99,6.92,16.21,6.92c4.36,0,8.32-1.37,11.87-4.11c3.55-2.74,5.96-6.98,7.23-12.73h-2.49
		C389.73,270.65,384.19,275.4,376.01,275.4z M365.83,240.5c0-2.55,0.79-4.56,2.37-6.05c1.58-1.49,3.76-2.23,6.54-2.23
		c5.59,0,8.39,3.09,8.39,9.26c0,1.43-0.15,3.51-0.46,6.25h-16.84V240.5z"/>
</g>
<polygon class="st0" points="305.23,273.6 305.23,224.15 294,224.15 294,273.6 285.89,273.6 285.89,276.56 312.81,276.56 
	312.81,273.6 "/>
<rect x="289.59" y="169.46" class="st0" width="10.34" height="45.99"/>
</svg>
