<?xml version="1.0" encoding="UTF-8" standalone="no"?>
<!-- Generator: Adobe Illustrator 26.0.1, SVG Export Plug-In . SVG Version: 6.00 Build 0)  -->

<svg
   version="1.1"
   id="Layer_1"
   x="0px"
   y="0px"
   viewBox="0 0 432 174.98001"
   xml:space="preserve"
   sodipodi:docname="banner.svg"
   width="432"
   height="174.98001"
   inkscape:version="1.4.2 (ebf0e940d0, 2025-05-08)"
   xmlns:inkscape="http://www.inkscape.org/namespaces/inkscape"
   xmlns:sodipodi="http://sodipodi.sourceforge.net/DTD/sodipodi-0.dtd"
   xmlns="http://www.w3.org/2000/svg"
   xmlns:svg="http://www.w3.org/2000/svg"><defs
   id="defs100" /><sodipodi:namedview
   id="namedview100"
   pagecolor="#ffffff"
   bordercolor="#000000"
   borderopacity="0.25"
   inkscape:showpageshadow="2"
   inkscape:pageopacity="0.0"
   inkscape:pagecheckerboard="0"
   inkscape:deskcolor="#d1d1d1"
   inkscape:zoom="1.8518519"
   inkscape:cx="153.36"
   inkscape:cy="139.86"
   inkscape:window-width="1920"
   inkscape:window-height="1008"
   inkscape:window-x="0"
   inkscape:window-y="0"
   inkscape:window-maximized="1"
   inkscape:current-layer="Layer_1" />
<style
   type="text/css"
   id="style1">
	.st0{fill:#03D889;}
	.st1{fill:#0B2E34;}
	.st2{fill:none;}
</style>
<g
   id="g36"
   transform="translate(-72,-128.50999)">
	<path
   class="st0"
   d="m 84.17,300.23 c -0.69,0.36 -2.14,0.71 -3.97,0.71 -4.24,0 -7.4,-2.68 -7.4,-7.6 0,-4.7 3.19,-7.87 7.85,-7.87 1.85,0 3.05,0.4 3.57,0.65 l -0.49,1.6 c -0.71,-0.36 -1.76,-0.62 -3.01,-0.62 -3.52,0 -5.86,2.25 -5.86,6.17 0,3.68 2.12,6.02 5.75,6.02 1.2,0 2.41,-0.25 3.19,-0.62 z"
   id="path1" />
	<path
   class="st0"
   d="m 86.6,285.7 h 1.96 v 13.4 h 6.42 v 1.63 H 86.6 Z"
   id="path2" />
	<path
   class="st0"
   d="m 104.91,293.68 h -5.82 v 5.42 h 6.51 v 1.63 H 97.13 V 285.7 h 8.14 v 1.63 h -6.18 v 4.75 h 5.82 z"
   id="path3" />
	<path
   class="st0"
   d="m 110.55,296 -1.56,4.73 h -2.01 l 5.1,-15.02 h 2.34 l 5.13,15.02 h -2.07 l -1.6,-4.73 z m 4.93,-1.52 -1.49,-4.32 c -0.31,-0.98 -0.54,-1.87 -0.76,-2.74 h -0.07 c -0.2,0.87 -0.45,1.8 -0.74,2.72 l -1.47,4.35 h 4.53 z"
   id="path4" />
	<path
   class="st0"
   d="m 121.77,285.92 c 0.98,-0.2 2.41,-0.33 3.72,-0.33 2.07,0 3.43,0.4 4.37,1.25 0.74,0.65 1.18,1.67 1.18,2.85 0,1.96 -1.27,3.28 -2.83,3.81 v 0.07 c 1.14,0.4 1.83,1.47 2.21,3.03 0.49,2.1 0.85,3.54 1.14,4.12 h -2.01 c -0.25,-0.45 -0.58,-1.72 -0.98,-3.59 -0.45,-2.07 -1.27,-2.85 -3.03,-2.92 h -1.83 v 6.51 h -1.94 z m 1.94,6.82 h 1.98 c 2.07,0 3.39,-1.14 3.39,-2.85 0,-1.94 -1.4,-2.79 -3.45,-2.79 -0.94,0 -1.58,0.09 -1.92,0.18 z"
   id="path5" />
	<path
   class="st0"
   d="m 132.43,303.49 c 0.49,-1.34 1.09,-3.72 1.34,-5.35 l 2.18,-0.22 c -0.53,1.9 -1.52,4.37 -2.14,5.42 z"
   id="path6" />
	<path
   class="st0"
   d="m 153.59,300.23 c -0.69,0.36 -2.14,0.71 -3.97,0.71 -4.24,0 -7.4,-2.68 -7.4,-7.6 0,-4.7 3.19,-7.87 7.85,-7.87 1.85,0 3.05,0.4 3.57,0.65 l -0.49,1.6 c -0.71,-0.36 -1.76,-0.62 -3.01,-0.62 -3.52,0 -5.86,2.25 -5.86,6.17 0,3.68 2.12,6.02 5.75,6.02 1.2,0 2.41,-0.25 3.19,-0.62 z"
   id="path7" />
	<path
   class="st0"
   d="m 161.44,300.97 c -3.99,0 -6.75,-3.08 -6.75,-7.62 0,-4.77 2.94,-7.89 6.96,-7.89 4.12,0 6.78,3.14 6.78,7.6 0,5.15 -3.14,7.91 -6.96,7.91 z m 0.11,-1.58 c 3.08,0 4.81,-2.83 4.81,-6.24 0,-2.99 -1.56,-6.11 -4.79,-6.11 -3.23,0 -4.84,3.01 -4.84,6.26 0,3.17 1.74,6.09 4.79,6.09 z"
   id="path8" />
	<path
   class="st0"
   d="M 170.94,300.72 V 285.7 h 2.14 l 4.79,7.6 c 1.09,1.76 1.98,3.34 2.67,4.88 l 0.07,-0.02 c -0.18,-2.01 -0.22,-3.83 -0.22,-6.15 v -6.31 h 1.83 v 15.02 h -1.96 l -4.77,-7.62 c -1.05,-1.67 -2.05,-3.39 -2.79,-5.02 l -0.07,0.02 c 0.11,1.89 0.13,3.7 0.13,6.2 v 6.42 z"
   id="path9" />
	<path
   class="st0"
   d="m 196.09,300.23 c -0.69,0.36 -2.14,0.71 -3.97,0.71 -4.24,0 -7.4,-2.68 -7.4,-7.6 0,-4.7 3.19,-7.87 7.85,-7.87 1.85,0 3.05,0.4 3.57,0.65 l -0.49,1.6 c -0.71,-0.36 -1.76,-0.62 -3.01,-0.62 -3.52,0 -5.86,2.25 -5.86,6.17 0,3.68 2.12,6.02 5.75,6.02 1.2,0 2.41,-0.25 3.19,-0.62 z"
   id="path10" />
	<path
   class="st0"
   d="m 200.49,285.7 v 15.02 h -1.96 V 285.7 Z"
   id="path11" />
	<path
   class="st0"
   d="m 203.64,298.36 c 0.87,0.54 2.12,0.96 3.46,0.96 1.98,0 3.14,-1.03 3.14,-2.54 0,-1.4 -0.8,-2.23 -2.83,-2.99 -2.45,-0.85 -3.97,-2.14 -3.97,-4.23 0,-2.34 1.94,-4.08 4.86,-4.08 1.52,0 2.65,0.36 3.3,0.71 l -0.54,1.6 c -0.47,-0.29 -1.47,-0.71 -2.83,-0.71 -2.05,0 -2.83,1.23 -2.83,2.25 0,1.38 0.91,2.07 2.99,2.88 2.54,1 3.81,2.21 3.81,4.41 0,2.3 -1.69,4.33 -5.24,4.33 -1.45,0 -3.03,-0.45 -3.83,-0.98 z"
   id="path12" />
	<path
   class="st0"
   d="m 222.63,293.68 h -5.82 v 5.42 h 6.51 v 1.63 h -8.47 V 285.7 h 8.14 v 1.63 h -6.17 v 4.75 h 5.82 v 1.6 z"
   id="path13" />
	<path
   class="st0"
   d="m 224.42,303.49 c 0.49,-1.34 1.09,-3.72 1.34,-5.35 l 2.18,-0.22 c -0.53,1.9 -1.52,4.37 -2.14,5.42 z"
   id="path14" />
	<path
   class="st0"
   d="m 245.58,300.23 c -0.69,0.36 -2.14,0.71 -3.97,0.71 -4.24,0 -7.4,-2.68 -7.4,-7.6 0,-4.7 3.19,-7.87 7.85,-7.87 1.85,0 3.05,0.4 3.57,0.65 l -0.49,1.6 c -0.71,-0.36 -1.76,-0.62 -3.01,-0.62 -3.52,0 -5.86,2.25 -5.86,6.17 0,3.68 2.12,6.02 5.75,6.02 1.2,0 2.41,-0.25 3.19,-0.62 z"
   id="path15" />
	<path
   class="st0"
   d="m 253.43,300.97 c -3.99,0 -6.75,-3.08 -6.75,-7.62 0,-4.77 2.94,-7.89 6.96,-7.89 4.12,0 6.78,3.14 6.78,7.6 0,5.15 -3.14,7.91 -6.96,7.91 z m 0.11,-1.58 c 3.08,0 4.82,-2.83 4.82,-6.24 0,-2.99 -1.56,-6.11 -4.79,-6.11 -3.23,0 -4.84,3.01 -4.84,6.26 0,3.17 1.74,6.09 4.79,6.09 z"
   id="path16" />
	<path
   class="st0"
   d="m 264.87,285.7 v 6.29 h 7.27 v -6.29 h 1.96 v 15.02 h -1.96 v -7.04 h -7.27 v 7.04 h -1.96 V 285.7 Z"
   id="path17" />
	<path
   class="st0"
   d="m 285.23,293.68 h -5.82 v 5.42 h 6.51 v 1.63 h -8.47 V 285.7 h 8.14 v 1.63 h -6.18 v 4.75 h 5.82 z"
   id="path18" />
	<path
   class="st0"
   d="m 288.44,285.92 c 0.98,-0.2 2.41,-0.33 3.72,-0.33 2.07,0 3.43,0.4 4.37,1.25 0.74,0.65 1.18,1.67 1.18,2.85 0,1.96 -1.27,3.28 -2.83,3.81 v 0.07 c 1.14,0.4 1.83,1.47 2.21,3.03 0.49,2.1 0.85,3.54 1.14,4.12 h -2.01 c -0.24,-0.45 -0.58,-1.72 -0.98,-3.59 -0.45,-2.07 -1.27,-2.85 -3.03,-2.92 h -1.83 v 6.51 h -1.94 z m 1.94,6.82 h 1.98 c 2.07,0 3.39,-1.14 3.39,-2.85 0,-1.94 -1.4,-2.79 -3.45,-2.79 -0.94,0 -1.58,0.09 -1.92,0.18 z"
   id="path19" />
	<path
   class="st0"
   d="m 308.2,293.68 h -5.82 v 5.42 h 6.51 v 1.63 h -8.47 V 285.7 h 8.14 v 1.63 h -6.18 v 4.75 h 5.82 z"
   id="path20" />
	<path
   class="st0"
   d="M 311.41,300.72 V 285.7 h 2.14 l 4.79,7.6 c 1.09,1.76 1.98,3.34 2.68,4.88 l 0.07,-0.02 c -0.18,-2.01 -0.22,-3.83 -0.22,-6.15 v -6.31 h 1.83 v 15.02 h -1.96 l -4.77,-7.62 c -1.05,-1.67 -2.05,-3.39 -2.79,-5.02 l -0.07,0.02 c 0.11,1.89 0.13,3.7 0.13,6.2 v 6.42 z"
   id="path21" />
	<path
   class="st0"
   d="m 328.94,287.35 h -4.57 v -1.65 h 11.12 v 1.65 h -4.59 v 13.38 h -1.96 z"
   id="path22" />
	<path
   class="st0"
   d="m 334.49,303.49 c 0.49,-1.34 1.09,-3.72 1.34,-5.35 l 2.18,-0.22 c -0.54,1.9 -1.51,4.37 -2.14,5.42 z"
   id="path23" />
	<path
   class="st0"
   d="m 355.65,300.23 c -0.69,0.36 -2.14,0.71 -3.97,0.71 -4.24,0 -7.4,-2.68 -7.4,-7.6 0,-4.7 3.19,-7.87 7.85,-7.87 1.85,0 3.05,0.4 3.57,0.65 l -0.49,1.6 c -0.71,-0.36 -1.76,-0.62 -3.01,-0.62 -3.52,0 -5.86,2.25 -5.86,6.17 0,3.68 2.12,6.02 5.75,6.02 1.2,0 2.41,-0.25 3.19,-0.62 z"
   id="path24" />
	<path
   class="st0"
   d="m 363.5,300.97 c -3.99,0 -6.75,-3.08 -6.75,-7.62 0,-4.77 2.94,-7.89 6.95,-7.89 4.12,0 6.78,3.14 6.78,7.6 0,5.15 -3.14,7.91 -6.96,7.91 z m 0.12,-1.58 c 3.08,0 4.82,-2.83 4.82,-6.24 0,-2.99 -1.56,-6.11 -4.79,-6.11 -3.23,0 -4.84,3.01 -4.84,6.26 0,3.17 1.74,6.09 4.79,6.09 z"
   id="path25" />
	<path
   class="st0"
   d="m 385.67,294.12 c -0.11,-2.07 -0.25,-4.64 -0.25,-6.49 h -0.04 c -0.54,1.74 -1.14,3.66 -1.9,5.71 l -2.65,7.29 h -1.47 l -2.45,-7.16 c -0.71,-2.12 -1.29,-4.06 -1.72,-5.84 h -0.04 c -0.04,1.87 -0.16,4.39 -0.29,6.64 l -0.4,6.44 h -1.85 l 1.05,-15.02 h 2.48 l 2.56,7.27 c 0.62,1.85 1.11,3.52 1.51,5.08 h 0.05 c 0.4,-1.51 0.94,-3.19 1.6,-5.08 l 2.68,-7.27 H 387 l 0.94,15.02 h -1.92 z"
   id="path26" />
	<path
   class="st0"
   d="m 390.93,285.9 c 0.94,-0.18 2.16,-0.31 3.72,-0.31 1.92,0 3.32,0.45 4.21,1.25 0.82,0.71 1.34,1.8 1.34,3.12 0,1.36 -0.4,2.43 -1.18,3.21 -1.03,1.09 -2.7,1.65 -4.59,1.65 -0.58,0 -1.11,-0.02 -1.56,-0.13 v 6.04 h -1.94 z m 1.94,7.2 c 0.42,0.11 0.96,0.16 1.61,0.16 2.34,0 3.77,-1.14 3.77,-3.19 0,-1.98 -1.4,-2.94 -3.54,-2.94 -0.85,0 -1.49,0.07 -1.83,0.16 v 5.81 z"
   id="path27" />
	<path
   class="st0"
   d="m 402.8,285.92 c 0.98,-0.2 2.41,-0.33 3.72,-0.33 2.07,0 3.43,0.4 4.37,1.25 0.74,0.65 1.18,1.67 1.18,2.85 0,1.96 -1.27,3.28 -2.83,3.81 v 0.07 c 1.14,0.4 1.83,1.47 2.21,3.03 0.49,2.1 0.85,3.54 1.14,4.12 h -2.01 c -0.24,-0.45 -0.58,-1.72 -0.98,-3.59 -0.45,-2.07 -1.27,-2.85 -3.03,-2.92 h -1.83 v 6.51 h -1.94 z m 1.94,6.82 h 1.98 c 2.07,0 3.39,-1.14 3.39,-2.85 0,-1.94 -1.4,-2.79 -3.45,-2.79 -0.94,0 -1.58,0.09 -1.92,0.18 z"
   id="path28" />
	<path
   class="st0"
   d="m 422.55,293.68 h -5.82 v 5.42 h 6.51 v 1.63 h -8.47 V 285.7 h 8.14 v 1.63 h -6.18 v 4.75 h 5.82 z"
   id="path29" />
	<path
   class="st0"
   d="m 427.71,285.7 v 6.29 h 7.27 v -6.29 h 1.96 v 15.02 h -1.96 v -7.04 h -7.27 v 7.04 h -1.96 V 285.7 Z"
   id="path30" />
	<path
   class="st0"
   d="m 448.07,293.68 h -5.82 v 5.42 h 6.51 v 1.63 h -8.47 V 285.7 h 8.14 v 1.63 h -6.18 v 4.75 h 5.82 z"
   id="path31" />
	<path
   class="st0"
   d="M 451.28,300.72 V 285.7 h 2.14 l 4.79,7.6 c 1.09,1.76 1.98,3.34 2.68,4.88 l 0.07,-0.02 c -0.18,-2.01 -0.22,-3.83 -0.22,-6.15 v -6.31 h 1.83 v 15.02 h -1.96 l -4.77,-7.62 c -1.05,-1.67 -2.05,-3.39 -2.79,-5.02 l -0.07,0.02 c 0.11,1.89 0.13,3.7 0.13,6.2 v 6.42 z"
   id="path32" />
	<path
   class="st0"
   d="m 465.71,298.36 c 0.87,0.54 2.12,0.96 3.45,0.96 1.98,0 3.14,-1.03 3.14,-2.54 0,-1.4 -0.8,-2.23 -2.83,-2.99 -2.45,-0.85 -3.97,-2.14 -3.97,-4.23 0,-2.34 1.94,-4.08 4.86,-4.08 1.51,0 2.65,0.36 3.3,0.71 l -0.54,1.6 c -0.47,-0.29 -1.47,-0.71 -2.83,-0.71 -2.05,0 -2.83,1.23 -2.83,2.25 0,1.38 0.91,2.07 2.99,2.88 2.54,1 3.81,2.21 3.81,4.41 0,2.3 -1.69,4.33 -5.24,4.33 -1.45,0 -3.03,-0.45 -3.83,-0.98 z"
   id="path33" />
	<path
   class="st0"
   d="m 478.89,285.7 v 15.02 h -1.96 V 285.7 Z"
   id="path34" />
	<path
   class="st0"
   d="m 485.58,300.72 -4.93,-15.02 h 2.12 l 2.34,7.4 c 0.62,2.03 1.18,3.88 1.6,5.62 h 0.04 c 0.42,-1.74 1.03,-3.63 1.72,-5.59 l 2.54,-7.42 h 2.07 l -5.37,15.02 h -2.13 z"
   id="path35" />
	<path
   class="st0"
   d="m 502.48,293.68 h -5.82 v 5.42 h 6.51 v 1.63 H 494.7 V 285.7 h 8.14 v 1.63 h -6.18 v 4.75 h 5.82 z"
   id="path36" />
</g>
<rect
   x="13.610001"
   y="116.65001"
   class="st0"
   width="10.34"
   height="21.860001"
   id="rect36" />
<rect
   x="0"
   y="130.64"
   class="st0"
   width="10.34"
   height="17.77"
   id="rect37" />
<polygon
   class="st0"
   points="99.22,270.28 99.22,276.56 109.57,276.56 109.57,240.89 99.22,240.89 99.22,267.01 "
   id="polygon37"
   transform="translate(-72,-128.50999)" />
<rect
   x="40.830002"
   y="87.850006"
   class="st0"
   width="10.34"
   height="41.150002"
   id="rect38" />
<rect
   x="54.440002"
   y="89.480011"
   class="st0"
   width="10.34"
   height="58.560001"
   id="rect39" />
<rect
   x="68.050003"
   y="59.050003"
   class="st0"
   width="10.34"
   height="71.160004"
   id="rect40" />
<rect
   x="81.660004"
   y="60.680008"
   class="st0"
   width="10.34"
   height="87.360001"
   id="rect41" />
<rect
   x="136.11"
   y="44.650009"
   class="st0"
   width="10.34"
   height="43.959999"
   id="rect42" />
<rect
   x="176.94"
   y="0"
   class="st0"
   width="10.34"
   height="36.560001"
   id="rect43" />
<rect
   x="163.33"
   y="24.340012"
   class="st0"
   width="10.34"
   height="47.48"
   id="rect44" />
<rect
   x="408.04999"
   y="125.15001"
   class="st0"
   width="10.34"
   height="22.9"
   id="rect45" />
<rect
   x="421.66"
   y="131.63002"
   class="st0"
   width="10.34"
   height="16.42"
   id="rect46" />
<rect
   x="394.42999"
   y="102.25"
   class="st0"
   width="10.34"
   height="28.67"
   id="rect47" />
<rect
   x="380.82001"
   y="109.08"
   class="st0"
   width="10.34"
   height="38.959999"
   id="rect48" />
<rect
   x="367.20999"
   y="73.450012"
   class="st0"
   width="10.34"
   height="21.68"
   id="rect49" />
<rect
   x="353.60001"
   y="77.080002"
   class="st0"
   width="10.34"
   height="55.27"
   id="rect50" />
<rect
   x="339.98999"
   y="55.860001"
   class="st0"
   width="10.34"
   height="46.049999"
   id="rect51" />
<rect
   x="231.10999"
   y="24.220001"
   class="st0"
   width="10.34"
   height="44.799999"
   id="rect52" />
<circle
   class="st1"
   cx="155.21001"
   cy="93.820007"
   r="4.1999998"
   id="circle52" />
<circle
   class="st1"
   cx="169.31"
   cy="93.820007"
   r="4.1999998"
   id="circle53" />
<path
   class="st2"
   d="m 323.87,127.24001 c 0.92,0.13 1.77,0.51 2.51,1.06 v -2.09 c -0.73,0.54 -1.6,0.9 -2.51,1.03 z"
   id="path53" />
<path
   class="st2"
   d="m 311.83,97.130005 c 0.31,0.11 0.63,0.22 0.94,0.34 v -1.51 c -0.29,0.41 -0.6,0.79 -0.94,1.17 z"
   id="path54" />
<path
   class="st0"
   d="m 100.45,139.63001 h 3.91 v -28.66 h -3.91 c -2.4,0 -4.44,-1.56 -5.17,-3.71 v 36.09 c 0.72,-2.17 2.76,-3.72 5.17,-3.72 z"
   id="path55" />
<path
   class="st0"
   d="m 100.45,97.090005 h 5.17 v -38.04 H 95.28 v 41.750005 c 0.72,-2.160005 2.76,-3.710005 5.17,-3.710005 z"
   id="path56" />
<path
   class="st0"
   d="m 125.37,98.450005 c 2.58,-1.52 5.18,-2.05 7.47,-2.1 v -24.06 H 122.5 v 24.25 c 0.73,0.2 1.42,0.55 2.03,1.04 0.31,0.26 0.59,0.55 0.84,0.87 z"
   id="path57" />
<path
   class="st0"
   d="m 160.06,86.580005 v -34.93 h -10.34 v 35.41 c 1.5,-1.22 3.41,-1.96 5.49,-1.96 1.79,0 3.46,0.54 4.85,1.48 z"
   id="path58" />
<path
   class="st0"
   d="m 177.53,96.680005 c 2.48,0.52 4.35,2.71 4.35,5.350005 v 6.32 h 0.73 c 1.5,0 2.84,0.67 3.76,1.71 V 78.850005 h -2.81 c -3.02,0 -5.46,-2.45 -5.46,-5.46 v -2.95 c 0,-3.02 2.45,-5.46 5.46,-5.46 h 3.72 v -5.43 h -10.34 v 30.07 c 0.69,1.25 1.09,2.68 1.09,4.21 0,0.99 -0.18,1.95 -0.5,2.85 z"
   id="path59" />
<path
   class="st0"
   d="m 208.59,69.560005 v 7.98 h 5.82 v -48.95 h -10.34 v 35.59 c 0.88,0.15 1.73,0.52 2.45,1.09 1.31,1.04 2.07,2.62 2.07,4.29 z"
   id="path60" />
<path
   class="st0"
   d="m 326.38,111.02001 c 1.29,3.14 2.03,6.67 2.19,10.58 0,0.09 0,0.19 0,0.28 h 8.15 V 82.220005 h -10.34 z"
   id="path61" />
<path
   class="st0"
   d="m 312.77,95.960005 v 1.51 c 2.83,1.17 5.47,2.890005 7.88,5.160005 0.91,0.86 1.71,1.8 2.47,2.77 V 69.550005 h -10.34 v 11.18 c 1.52,2.15 2.43,4.77 2.43,7.61 0,2.84 -0.91,5.47 -2.44,7.62 z"
   id="path62" />
<path
   class="st0"
   d="m 309.5,77.500005 v -39.51 h -10.34 v 37.5 c 0.92,-0.2 1.88,-0.32 2.86,-0.32 2.78,-0.01 5.36,0.86 7.48,2.33 z"
   id="path63" />
<path
   class="st0"
   d="m 255.06,74.870005 v -37.66 h -10.34 v 51.37 c 1.62,-1.36 3.25,-2.34 4.84,-3.05 1.25,-3.94 3.02,-7.45 5.36,-10.48 0.04,-0.06 0.09,-0.12 0.14,-0.18 z"
   id="path64" />
<path
   class="st0"
   d="m 282.28,65.370005 v -37.77 h -10.34 v 36.74 c 1.14,-0.16 2.3,-0.25 3.48,-0.25 2.46,0.01 4.75,0.44 6.86,1.28 z"
   id="path65" />
<path
   class="st0"
   d="m 200.89,64.440005 v -40.09 h -10.34 v 40.62 h 0.95 c 4.91,-0.01 7.75,-0.26 9.39,-0.53 z"
   id="path66" />
<path
   class="st0"
   d="m 144.92,102.99001 c 0.47,-0.57 0.98,-1.11 1.53,-1.64 v -9.470005 h -10.34 v 4.72 c 2.56,0.49 4.81,1.65 6.61,3.440005 0.89,0.9 1.62,1.89 2.2,2.95 z"
   id="path67" />
<path
   class="st0"
   d="m 173.67,86.280005 v -11.2 h -10.34 v 12.41 c 1.56,-1.48 3.67,-2.39 5.98,-2.39 1.59,0 3.08,0.43 4.36,1.18 z"
   id="path68" />
<path
   class="st0"
   d="m 326.38,126.21001 v 2.09 c 0.36,0.27 0.71,0.57 1,0.93 1.04,1.29 1.43,2.99 1.07,4.6 -0.51,2.32 -1.22,4.44 -2.07,6.4 v 7.82 h 10.34 v -22.9 h -9.27 c -0.12,0.16 -0.25,0.32 -0.39,0.46 -0.21,0.22 -0.44,0.42 -0.68,0.6 z"
   id="path69" />
<rect
   x="13.610001"
   y="141.77"
   class="st1"
   width="10.34"
   height="6.2800002"
   id="rect69" />
<rect
   x="27.220001"
   y="102.25"
   class="st1"
   width="10.34"
   height="6.8699999"
   id="rect70" />
<rect
   x="40.830002"
   y="132.27"
   class="st1"
   width="10.34"
   height="15.78"
   id="rect71" />
<rect
   x="54.440002"
   y="73.450012"
   class="st1"
   width="10.34"
   height="12.77"
   id="rect72" />
<rect
   x="68.050003"
   y="133.48"
   class="st1"
   width="10.34"
   height="14.57"
   id="rect73" />
<rect
   x="81.660004"
   y="44.650009"
   class="st1"
   width="10.34"
   height="12.77"
   id="rect74" />
<rect
   x="108.88"
   y="73.450012"
   class="st1"
   width="10.34"
   height="18"
   id="rect75" />
<rect
   x="122.5"
   y="59.050003"
   class="st1"
   width="10.34"
   height="9.96"
   id="rect76" />
<rect
   x="149.72"
   y="30.25"
   class="st1"
   width="10.34"
   height="18.120001"
   id="rect77" />
<rect
   x="176.94"
   y="39.830002"
   class="st1"
   width="10.34"
   height="16.440001"
   id="rect78" />
<rect
   x="163.33"
   y="11.779999"
   class="st1"
   width="10.34"
   height="9.29"
   id="rect79" />
<rect
   x="408.04999"
   y="116.65001"
   class="st1"
   width="10.34"
   height="5.23"
   id="rect80" />
<rect
   x="394.42999"
   y="134.19002"
   class="st1"
   width="10.34"
   height="13.86"
   id="rect81" />
<rect
   x="380.82001"
   y="87.850006"
   class="st1"
   width="10.34"
   height="17.969999"
   id="rect82" />
<rect
   x="367.20999"
   y="98.400009"
   class="st1"
   width="10.34"
   height="17.48"
   id="rect83" />
<rect
   x="367.20999"
   y="119.14"
   class="st1"
   width="10.34"
   height="28.9"
   id="rect84" />
<rect
   x="353.60001"
   y="59.050003"
   class="st1"
   width="10.34"
   height="14.76"
   id="rect85" />
<rect
   x="353.60001"
   y="135.61"
   class="st1"
   width="10.34"
   height="12.43"
   id="rect86" />
<rect
   x="326.38"
   y="59.050003"
   class="st1"
   width="10.34"
   height="19.9"
   id="rect87" />
<rect
   x="339.98999"
   y="105.18001"
   class="st1"
   width="10.34"
   height="42.860001"
   id="rect88" />
<rect
   x="339.98999"
   y="44.650009"
   class="st1"
   width="10.34"
   height="7.9400001"
   id="rect89" />
<rect
   x="312.76999"
   y="52.389999"
   class="st1"
   width="10.34"
   height="13.9"
   id="rect90" />
<path
   class="st1"
   d="m 292.06,78.470005 c 0,0.45 -0.03,0.9 -0.08,1.34 1.09,-1.28 2.41,-2.35 3.91,-3.13 v -35.12 h -10.34 v 25.52 c 0.37,0.25 0.73,0.5 1.08,0.78 4.49,3.51 5.43,7.71 5.43,10.61 z"
   id="path90" />
<rect
   x="285.54999"
   y="23.590012"
   class="st1"
   width="10.34"
   height="14.71"
   id="rect91" />
<rect
   x="244.72"
   y="24.220001"
   class="st1"
   width="10.34"
   height="9.7200003"
   id="rect92" />
<rect
   x="217.59"
   y="24.220001"
   class="st1"
   width="10.34"
   height="13.46"
   id="rect93" />
<polygon
   class="st1"
   points="343.94,136.59 343.94,152.73 343.94,152.85 354.28,152.85 354.28,136.59 345.51,136.59 "
   id="polygon93"
   transform="translate(-72,-128.50999)" />
<path
   class="st1"
   d="m 268.67,24.220005 v -12.44 h -10.34 v 12.44 47 c 3.13,-3.01 6.58,-5.07 10.34,-6.17 z"
   id="path93" />
<polygon
   class="st1"
   points="271.3,140.29 262.55,140.29 262.55,149.59 272.89,149.59 272.89,140.29 "
   id="polygon94"
   transform="translate(-72,-128.50999)" />
<circle
   class="st1"
   cx="302.01999"
   cy="88.350006"
   r="7.7199998"
   id="circle94" />
<g
   id="g100"
   transform="translate(-72,-128.50999)">
	<g
   id="g99">
		<g
   id="g98">
			<g
   id="g94">
				<path
   class="st1"
   d="m 206.83,243.74 c 1.81,0 3.29,-0.57 4.43,-1.71 1.14,-1.14 1.71,-2.63 1.71,-4.49 0,-2.01 -0.7,-3.71 -2.11,-5.12 -1.41,-1.41 -3.27,-2.11 -5.59,-2.11 -5.29,0 -9.28,3.65 -11.98,10.94 h -0.23 v -10.94 c -2.55,0.5 -6.25,0.75 -11.11,0.75 h -9.49 v 2.95 h 9.38 v 39.59 h -9.38 v 2.95 h 30.21 v -2.95 h -9.61 v -17.77 c 0,-7.06 0.98,-12.31 2.95,-15.74 1.97,-3.43 3.59,-5.15 4.86,-5.15 0.81,0 1.22,0.44 1.22,1.33 l -0.23,2.49 c -0.01,3.32 1.65,4.98 4.97,4.98 z"
   id="path94" />
			</g>
			<g
   id="g95">
				<path
   class="st1"
   d="m 234.76,246.46 c -5.25,-0.7 -8.58,-1.53 -9.98,-2.52 -1.41,-0.98 -2.11,-2.32 -2.11,-4.02 0,-2.01 0.99,-3.79 2.98,-5.35 1.99,-1.56 4.47,-2.34 7.44,-2.34 6.87,0 11.19,3.76 12.96,11.29 h 2.37 v -12.97 h -1.79 c -0.81,1.51 -1.6,2.66 -2.37,3.47 -3.01,-2.93 -6.73,-4.4 -11.17,-4.4 -4.21,0 -7.77,1.34 -10.68,4.02 -2.91,2.68 -4.37,6.01 -4.37,9.98 0,8.07 5.42,12.89 16.27,14.47 6.37,0.93 10.27,1.93 11.72,3.01 1.45,1.08 2.17,2.68 2.17,4.8 0,2.55 -1.22,4.77 -3.65,6.66 -2.43,1.89 -5.13,2.84 -8.1,2.84 -7.83,0 -13.41,-5.46 -16.73,-16.38 h -2.03 v 17.08 h 2.03 l 4.05,-3.47 c 4.09,3.59 8.31,5.38 12.68,5.38 4.44,0 8.15,-1.51 11.14,-4.52 2.99,-3.01 4.49,-6.77 4.49,-11.29 -0.02,-9.07 -5.79,-14.31 -17.32,-15.74 z"
   id="path95" />
			</g>
			<g
   id="g96">
				<path
   class="st1"
   d="m 275.13,198.07 c -2.43,0.58 -6.31,0.87 -11.63,0.87 h -7.93 v 2.95 h 8.28 v 71.71 h -8.28 v 2.95 h 27.72 v -2.95 h -8.16 z"
   id="path96" />
			</g>
			<g
   id="g97">
				<path
   class="st1"
   d="m 336.31,231.06 v -9.72 c 0,-5.86 0.21,-10.12 0.64,-12.76 0.42,-2.64 1.6,-4.62 3.53,-5.93 1.93,-1.31 3.97,-1.97 6.14,-1.97 2.24,0 3.94,0.52 5.09,1.56 -2.55,1.5 -3.82,3.4 -3.82,5.67 0,1.47 0.5,2.68 1.51,3.65 1,0.96 2.2,1.45 3.59,1.45 1.62,0 2.96,-0.58 4.02,-1.74 1.06,-1.16 1.59,-2.58 1.59,-4.28 0,-2.47 -1.11,-4.57 -3.33,-6.31 -2.22,-1.74 -4.83,-2.61 -7.84,-2.61 -6.25,0 -11.64,2.94 -16.18,8.83 -4.53,5.88 -6.65,13.94 -6.34,24.17 h -9.61 v 2.95 h 9.61 v 39.59 h -8.62 v 2.95 h 29.75 v -2.95 h -9.72 v -39.59 h 10.76 v -2.95 h -10.77 z"
   id="path97" />
			</g>
		</g>
	</g>
	<path
   class="st1"
   d="m 376.01,275.4 c -3.97,0 -6.73,-1.32 -8.28,-3.97 -1.54,-2.64 -2.18,-9.67 -1.91,-21.1 h 29.29 c -0.27,-6.48 -2.34,-11.56 -6.22,-15.22 -3.88,-3.67 -8.4,-5.5 -13.57,-5.5 -5.94,0 -11.16,2.32 -15.66,6.95 -4.5,4.63 -6.74,10.34 -6.74,17.13 0,6.98 2.29,12.78 6.89,17.39 4.59,4.61 9.99,6.92 16.21,6.92 4.36,0 8.32,-1.37 11.87,-4.11 3.55,-2.74 5.96,-6.98 7.23,-12.73 h -2.49 c -2.9,9.49 -8.44,14.24 -16.62,14.24 z m -10.18,-34.9 c 0,-2.55 0.79,-4.56 2.37,-6.05 1.58,-1.49 3.76,-2.23 6.54,-2.23 5.59,0 8.39,3.09 8.39,9.26 0,1.43 -0.15,3.51 -0.46,6.25 h -16.84 z"
   id="path99" />
</g>
<polygon
   class="st1"
   points="285.89,273.6 285.89,276.56 312.81,276.56 312.81,273.6 305.23,273.6 305.23,224.15 294,224.15 294,273.6 "
   id="polygon100"
   transform="translate(-72,-128.50999)" />
<rect
   x="217.59"
   y="40.950012"
   class="st0"
   width="10.34"
   height="45.990002"
   id="rect100" />
</svg>
