<?xml version="1.0" encoding="UTF-8" standalone="no"?>
<!-- Created with Inkscape (http://www.inkscape.org/) -->

<svg
   version="1.1"
   id="svg1"
   width="576"
   height="233.29333"
   viewBox="0 0 576 233.29333"
   xmlns="http://www.w3.org/2000/svg"
   xmlns:svg="http://www.w3.org/2000/svg">
  <defs
     id="defs1" />
  <g
     id="g1">
    <g
       id="group-R5">
      <path
         id="path2"
         d="m 121.699,32.5391 c -6.914,-3.5586 -21.398,-7.1407 -39.6834,-7.1407 -42.3515,0 -74.00779,26.7618 -74.00779,76.0316 0,47.039 31.87889,78.691 78.46489,78.691 18.5043,0 30.5433,-4.019 35.6683,-6.473 l -4.907,-16.046 c -7.132,3.57 -17.6051,6.238 -30.0895,6.238 -35.2187,0 -58.6289,-22.512 -58.6289,-61.75 0,-36.7814 21.1797,-60.1798 57.5157,-60.1798 12.039,0 24.0707,2.4492 31.8747,6.2304 l 3.793,-15.6015"
         style="fill:#53c27d;fill-opacity:1;fill-rule:nonzero;stroke:none"
         transform="matrix(0.13333333,0,0,-0.13333333,0,233.29333)" />
      <path
         id="path3"
         d="M 146.043,177.879 H 165.66 V 43.9102 h 64.203 V 27.6406 h -83.82 V 177.879"
         style="fill:#53c27d;fill-opacity:1;fill-rule:nonzero;stroke:none"
         transform="matrix(0.13333333,0,0,-0.13333333,0,233.29333)" />
      <path
         id="path4"
         d="M 329.09,98.0781 H 270.914 V 43.9102 h 65.09 V 27.6406 H 251.293 V 177.879 h 81.371 v -16.258 h -61.75 v -47.48 H 329.09 V 98.0781"
         style="fill:#53c27d;fill-opacity:1;fill-rule:nonzero;stroke:none"
         transform="matrix(0.13333333,0,0,-0.13333333,0,233.29333)" />
      <path
         id="path5"
         d="m 434.797,90.0586 -14.934,43.2424 c -3.121,9.808 -5.355,18.73 -7.582,27.418 h -0.672 c -2,-8.688 -4.457,-18.047 -7.351,-27.199 L 389.543,90.0586 Z M 385.531,74.8984 369.93,27.6406 H 349.867 L 400.91,177.879 h 23.406 L 475.59,27.6406 h -20.731 l -16.046,47.2578 h -53.282"
         style="fill:#53c27d;fill-opacity:1;fill-rule:nonzero;stroke:none"
         transform="matrix(0.13333333,0,0,-0.13333333,0,233.29333)" />
      <path
         id="path6"
         d="m 517.109,107.449 h 19.844 c 20.731,0 33.879,11.371 33.879,28.531 0,19.399 -14.039,27.86 -34.551,27.86 -9.359,0 -15.824,-0.891 -19.172,-1.781 z m -19.39,68.211 c 9.808,2 24.078,3.34 37.226,3.34 20.731,0 34.328,-4.012 43.692,-12.488 7.359,-6.453 11.816,-16.703 11.816,-28.532 0,-19.609 -12.707,-32.769 -28.312,-38.1089 v -0.6719 c 11.371,-4.0195 18.281,-14.7109 22.07,-30.3203 4.902,-20.957 8.473,-35.4375 11.367,-41.2383 h -20.062 c -2.453,4.461 -5.793,17.1602 -9.809,35.8907 C 561.25,84.2695 553,92.0586 535.395,92.7383 H 517.109 V 27.6406 h -19.39 V 175.66"
         style="fill:#53c27d;fill-opacity:1;fill-rule:nonzero;stroke:none"
         transform="matrix(0.13333333,0,0,-0.13333333,0,233.29333)" />
      <path
         id="path7"
         d="m 604.316,0 c 4.907,13.3711 10.918,37.2305 13.375,53.5 l 21.844,2.2305 C 634.188,36.7695 624.379,12.0391 618.133,1.55859 L 604.316,0"
         style="fill:#53c27d;fill-opacity:1;fill-rule:nonzero;stroke:none"
         transform="matrix(0.13333333,0,0,-0.13333333,0,233.29333)" />
      <path
         id="path8"
         d="m 815.898,32.5391 c -6.914,-3.5586 -21.402,-7.1407 -39.683,-7.1407 -42.352,0 -74.012,26.7618 -74.012,76.0316 0,47.039 31.883,78.691 78.469,78.691 18.504,0 30.543,-4.019 35.668,-6.473 l -4.906,-16.046 c -7.133,3.57 -17.606,6.238 -30.09,6.238 -35.223,0 -58.629,-22.512 -58.629,-61.75 0,-36.7814 21.18,-60.1798 57.515,-60.1798 12.032,0 24.071,2.4492 31.875,6.2304 l 3.793,-15.6015"
         style="fill:#53c27d;fill-opacity:1;fill-rule:nonzero;stroke:none"
         transform="matrix(0.13333333,0,0,-0.13333333,0,233.29333)" />
      <path
         id="path9"
         d="m 895.527,41.0117 c 30.762,0 48.149,28.3086 48.149,62.4183 0,29.871 -15.606,61.082 -47.926,61.082 -32.328,0 -48.375,-30.09 -48.375,-62.641 0,-31.6522 17.383,-60.8593 47.926,-60.8593 z m -1.117,-15.832 c -39.902,0 -67.547,30.7695 -67.547,76.2503 0,47.699 29.422,78.91 69.555,78.91 41.242,0 67.766,-31.43 67.766,-76.012 0,-51.4882 -31.43,-79.1483 -69.551,-79.1483 h -0.223"
         style="fill:#53c27d;fill-opacity:1;fill-rule:nonzero;stroke:none"
         transform="matrix(0.13333333,0,0,-0.13333333,0,233.29333)" />
      <path
         id="path10"
         d="M 989.438,27.6406 V 177.879 h 21.402 l 47.93,-76.008 c 10.92,-17.6015 19.84,-33.4296 26.74,-48.8124 l 0.67,0.2227 c -1.78,20.0585 -2.23,38.3398 -2.23,61.5197 v 63.078 h 18.29 V 27.6406 h -19.63 l -47.69,76.2304 c -10.48,16.731 -20.51,33.891 -27.88,50.168 l -0.66,-0.23 c 1.11,-18.95 1.33,-37.008 1.33,-61.9692 V 27.6406 h -18.272"
         style="fill:#53c27d;fill-opacity:1;fill-rule:nonzero;stroke:none"
         transform="matrix(0.13333333,0,0,-0.13333333,0,233.29333)" />
      <path
         id="path11"
         d="m 1240.95,32.5391 c -6.92,-3.5586 -21.4,-7.1407 -39.69,-7.1407 -42.35,0 -74.01,26.7618 -74.01,76.0316 0,47.039 31.88,78.691 78.47,78.691 18.5,0 30.54,-4.019 35.67,-6.473 l -4.91,-16.046 c -7.13,3.57 -17.6,6.238 -30.09,6.238 -35.22,0 -58.63,-22.512 -58.63,-61.75 0,-36.7814 21.18,-60.1798 57.52,-60.1798 12.03,0 24.07,2.4492 31.87,6.2304 l 3.8,-15.6015"
         style="fill:#53c27d;fill-opacity:1;fill-rule:nonzero;stroke:none"
         transform="matrix(0.13333333,0,0,-0.13333333,0,233.29333)" />
      <path
         id="path12"
         d="M 1284.9,177.879 V 27.6406 h -19.62 V 177.879 h 19.62"
         style="fill:#53c27d;fill-opacity:1;fill-rule:nonzero;stroke:none"
         transform="matrix(0.13333333,0,0,-0.13333333,0,233.29333)" />
      <path
         id="path13"
         d="m 1316.36,51.2813 c 8.69,-5.3594 21.17,-9.5899 34.55,-9.5899 19.84,0 31.43,10.25 31.43,25.4102 0,14.0468 -8.02,22.2773 -28.31,29.8672 -24.52,8.4802 -39.68,21.4022 -39.68,42.3512 0,23.41 19.4,40.801 48.6,40.801 15.16,0 26.53,-3.582 32.99,-7.133 l -5.35,-16.047 c -4.68,2.899 -14.71,7.129 -28.31,7.129 -20.51,0 -28.31,-12.261 -28.31,-22.519 0,-13.821 9.14,-20.731 29.87,-28.75 25.41,-10.031 38.12,-22.0822 38.12,-44.1408 0,-22.961 -16.94,-43.2618 -52.39,-43.2618 -14.48,0 -30.32,4.4805 -38.34,9.8125 l 5.13,16.0704"
         style="fill:#53c27d;fill-opacity:1;fill-rule:nonzero;stroke:none"
         transform="matrix(0.13333333,0,0,-0.13333333,0,233.29333)" />
      <path
         id="path14"
         d="m 1506.32,98.0781 h -58.18 V 43.9102 h 65.09 V 27.6406 h -84.71 V 177.879 h 81.36 v -16.258 h -61.74 v -47.48 h 58.18 V 98.0781"
         style="fill:#53c27d;fill-opacity:1;fill-rule:nonzero;stroke:none"
         transform="matrix(0.13333333,0,0,-0.13333333,0,233.29333)" />
      <path
         id="path15"
         d="m 1524.19,0 c 4.91,13.3711 10.93,37.2305 13.38,53.5 l 21.84,2.2305 c -5.34,-18.961 -15.15,-43.6914 -21.4,-54.17191 L 1524.19,0"
         style="fill:#53c27d;fill-opacity:1;fill-rule:nonzero;stroke:none"
         transform="matrix(0.13333333,0,0,-0.13333333,0,233.29333)" />
      <path
         id="path16"
         d="m 1735.78,32.5391 c -6.92,-3.5586 -21.4,-7.1407 -39.68,-7.1407 -42.36,0 -74.02,26.7618 -74.02,76.0316 0,47.039 31.88,78.691 78.47,78.691 18.5,0 30.54,-4.019 35.67,-6.473 l -4.91,-16.046 c -7.13,3.57 -17.6,6.238 -30.09,6.238 -35.22,0 -58.63,-22.512 -58.63,-61.75 0,-36.7814 21.18,-60.1798 57.52,-60.1798 12.04,0 24.07,2.4492 31.87,6.2304 l 3.8,-15.6015"
         style="fill:#53c27d;fill-opacity:1;fill-rule:nonzero;stroke:none"
         transform="matrix(0.13333333,0,0,-0.13333333,0,233.29333)" />
      <path
         id="path17"
         d="m 1815.4,41.0117 c 30.77,0 48.15,28.3086 48.15,62.4183 0,29.871 -15.6,61.082 -47.92,61.082 -32.32,0 -48.38,-30.09 -48.38,-62.641 0,-31.6522 17.39,-60.8593 47.93,-60.8593 z m -1.11,-15.832 c -39.9,0 -67.55,30.7695 -67.55,76.2503 0,47.699 29.43,78.91 69.56,78.91 41.24,0 67.76,-31.43 67.76,-76.012 0,-51.4882 -31.43,-79.1483 -69.55,-79.1483 h -0.22"
         style="fill:#53c27d;fill-opacity:1;fill-rule:nonzero;stroke:none"
         transform="matrix(0.13333333,0,0,-0.13333333,0,233.29333)" />
      <path
         id="path18"
         d="M 1928.71,177.879 V 115.02 h 72.67 v 62.859 H 2021 V 27.6406 h -19.62 v 70.4375 h -72.67 V 27.6406 h -19.62 V 177.879 h 19.62"
         style="fill:#53c27d;fill-opacity:1;fill-rule:nonzero;stroke:none"
         transform="matrix(0.13333333,0,0,-0.13333333,0,233.29333)" />
      <path
         id="path19"
         d="M 2132.29,98.0781 H 2074.1 V 43.9102 h 65.1 V 27.6406 h -84.71 V 177.879 h 81.37 v -16.258 h -61.76 v -47.48 h 58.19 V 98.0781"
         style="fill:#53c27d;fill-opacity:1;fill-rule:nonzero;stroke:none"
         transform="matrix(0.13333333,0,0,-0.13333333,0,233.29333)" />
      <path
         id="path20"
         d="m 2183.82,107.449 h 19.84 c 20.74,0 33.89,11.371 33.89,28.531 0,19.399 -14.05,27.86 -34.55,27.86 -9.37,0 -15.82,-0.891 -19.18,-1.781 z m -19.38,68.211 c 9.81,2 24.07,3.34 37.22,3.34 20.74,0 34.33,-4.012 43.71,-12.488 7.35,-6.453 11.81,-16.703 11.81,-28.532 0,-19.609 -12.71,-32.769 -28.32,-38.1089 v -0.6719 c 11.37,-4.0195 18.29,-14.7109 22.08,-30.3203 4.9,-20.957 8.46,-35.4375 11.36,-41.2383 h -20.07 c -2.44,4.461 -5.8,17.1602 -9.8,35.8907 -4.47,20.7382 -12.71,28.5273 -30.33,29.207 h -18.28 V 27.6406 h -19.38 V 175.66"
         style="fill:#53c27d;fill-opacity:1;fill-rule:nonzero;stroke:none"
         transform="matrix(0.13333333,0,0,-0.13333333,0,233.29333)" />
      <path
         id="path21"
         d="M 2361.99,98.0781 H 2303.8 V 43.9102 h 65.1 V 27.6406 h -84.7 V 177.879 h 81.36 v -16.258 h -61.76 v -47.48 h 58.19 V 98.0781"
         style="fill:#53c27d;fill-opacity:1;fill-rule:nonzero;stroke:none"
         transform="matrix(0.13333333,0,0,-0.13333333,0,233.29333)" />
      <path
         id="path22"
         d="M 2394.13,27.6406 V 177.879 h 21.4 l 47.91,-76.008 c 10.93,-17.6015 19.85,-33.4296 26.76,-48.8124 l 0.68,0.2227 c -1.8,20.0585 -2.24,38.3398 -2.24,61.5197 v 63.078 h 18.28 V 27.6406 h -19.62 l -47.7,76.2304 c -10.48,16.731 -20.51,33.891 -27.87,50.168 l -0.66,-0.23 c 1.12,-18.95 1.34,-37.008 1.34,-61.9692 V 27.6406 h -18.28"
         style="fill:#53c27d;fill-opacity:1;fill-rule:nonzero;stroke:none"
         transform="matrix(0.13333333,0,0,-0.13333333,0,233.29333)" />
      <path
         id="path23"
         d="m 2569.4,161.398 h -45.7 v 16.481 h 111.24 v -16.481 h -45.92 V 27.6406 H 2569.4 V 161.398"
         style="fill:#53c27d;fill-opacity:1;fill-rule:nonzero;stroke:none"
         transform="matrix(0.13333333,0,0,-0.13333333,0,233.29333)" />
      <path
         id="path24"
         d="m 2624.94,0 c 4.91,13.3711 10.93,37.2305 13.38,53.5 l 21.85,2.2305 c -5.36,-18.961 -15.15,-43.6914 -21.41,-54.17191 L 2624.94,0"
         style="fill:#53c27d;fill-opacity:1;fill-rule:nonzero;stroke:none"
         transform="matrix(0.13333333,0,0,-0.13333333,0,233.29333)" />
      <path
         id="path25"
         d="m 2836.51,32.5391 c -6.91,-3.5586 -21.4,-7.1407 -39.66,-7.1407 -42.36,0 -74.01,26.7618 -74.01,76.0316 0,47.039 31.87,78.691 78.46,78.691 18.51,0 30.54,-4.019 35.67,-6.473 l -4.91,-16.046 c -7.14,3.57 -17.61,6.238 -30.09,6.238 -35.23,0 -58.63,-22.512 -58.63,-61.75 0,-36.7814 21.18,-60.1798 57.51,-60.1798 12.04,0 24.07,2.4492 31.88,6.2304 l 3.78,-15.6015"
         style="fill:#53c27d;fill-opacity:1;fill-rule:nonzero;stroke:none"
         transform="matrix(0.13333333,0,0,-0.13333333,0,233.29333)" />
      <path
         id="path26"
         d="m 2916.16,41.0117 c 30.75,0 48.15,28.3086 48.15,62.4183 0,29.871 -15.6,61.082 -47.93,61.082 -32.33,0 -48.38,-30.09 -48.38,-62.641 0,-31.6522 17.39,-60.8593 47.94,-60.8593 z m -1.12,-15.832 c -39.9,0 -67.54,30.7695 -67.54,76.2503 0,47.699 29.42,78.91 69.54,78.91 41.24,0 67.78,-31.43 67.78,-76.012 0,-51.4882 -31.43,-79.1483 -69.56,-79.1483 h -0.22"
         style="fill:#53c27d;fill-opacity:1;fill-rule:nonzero;stroke:none"
         transform="matrix(0.13333333,0,0,-0.13333333,0,233.29333)" />
      <path
         id="path27"
         d="m 3136.68,93.6211 c -1.12,20.7379 -2.46,46.3789 -2.46,64.8789 h -0.44 c -5.35,-17.391 -11.37,-36.57 -18.96,-57.07 L 3088.3,28.5391 h -14.72 l -24.52,71.5509 c -7.13,21.18 -12.93,40.57 -17.16,58.41 h -0.44 c -0.45,-18.73 -1.56,-43.922 -2.9,-66.4414 l -4.02,-64.418 h -18.5 l 10.47,150.2384 h 24.76 l 25.63,-72.668 c 6.24,-18.5001 11.15,-35.211 15.15,-50.8204 h 0.46 c 4,15.1485 9.35,31.8789 16.04,50.8204 l 26.76,72.668 h 24.74 l 9.37,-150.2384 h -19.18 l -3.56,65.9805"
         style="fill:#53c27d;fill-opacity:1;fill-rule:nonzero;stroke:none"
         transform="matrix(0.13333333,0,0,-0.13333333,0,233.29333)" />
      <path
         id="path28"
         d="m 3208.73,103.871 c 4.24,-1.101 9.59,-1.562 16.06,-1.562 23.4,0 37.67,11.371 37.67,31.89 0,19.84 -14.05,29.422 -35.45,29.422 -8.47,0 -14.92,-0.672 -18.28,-1.562 z m -19.38,72.008 c 9.35,1.781 21.62,3.121 37.22,3.121 19.17,0 33.21,-4.461 42.14,-12.488 8.24,-7.133 13.37,-18.043 13.37,-31.211 0,-13.59 -4.01,-24.289 -11.81,-32.09 -10.27,-10.9297 -26.97,-16.5001 -45.93,-16.5001 -5.8,0 -11.14,0.2305 -15.61,1.3399 V 27.6406 h -19.38 V 175.879"
         style="fill:#53c27d;fill-opacity:1;fill-rule:nonzero;stroke:none"
         transform="matrix(0.13333333,0,0,-0.13333333,0,233.29333)" />
      <path
         id="path29"
         d="m 3327.38,107.449 h 19.84 c 20.74,0 33.89,11.371 33.89,28.531 0,19.399 -14.05,27.86 -34.55,27.86 -9.37,0 -15.82,-0.891 -19.18,-1.781 z M 3308,175.66 c 9.81,2 24.07,3.34 37.22,3.34 20.74,0 34.33,-4.012 43.7,-12.488 7.35,-6.453 11.81,-16.703 11.81,-28.532 0,-19.609 -12.71,-32.769 -28.31,-38.1089 v -0.6719 c 11.37,-4.0195 18.28,-14.7109 22.07,-30.3203 4.9,-20.957 8.46,-35.4375 11.36,-41.2383 h -20.06 c -2.44,4.461 -5.8,17.1602 -9.8,35.8907 -4.47,20.7382 -12.71,28.5273 -30.33,29.207 h -18.28 V 27.6406 H 3308 V 175.66"
         style="fill:#53c27d;fill-opacity:1;fill-rule:nonzero;stroke:none"
         transform="matrix(0.13333333,0,0,-0.13333333,0,233.29333)" />
      <path
         id="path30"
         d="m 3505.54,98.0781 h -58.18 V 43.9102 h 65.09 V 27.6406 h -84.7 V 177.879 h 81.36 v -16.258 h -61.75 v -47.48 h 58.18 V 98.0781"
         style="fill:#53c27d;fill-opacity:1;fill-rule:nonzero;stroke:none"
         transform="matrix(0.13333333,0,0,-0.13333333,0,233.29333)" />
      <path
         id="path31"
         d="M 3557.06,177.879 V 115.02 h 72.68 v 62.859 h 19.62 V 27.6406 h -19.62 v 70.4375 h -72.68 V 27.6406 h -19.6 V 177.879 h 19.6"
         style="fill:#53c27d;fill-opacity:1;fill-rule:nonzero;stroke:none"
         transform="matrix(0.13333333,0,0,-0.13333333,0,233.29333)" />
      <path
         id="path32"
         d="m 3760.65,98.0781 h -58.18 V 43.9102 h 65.09 V 27.6406 h -84.7 V 177.879 h 81.37 v -16.258 h -61.76 v -47.48 h 58.18 V 98.0781"
         style="fill:#53c27d;fill-opacity:1;fill-rule:nonzero;stroke:none"
         transform="matrix(0.13333333,0,0,-0.13333333,0,233.29333)" />
      <path
         id="path33"
         d="M 3792.8,27.6406 V 177.879 h 21.4 l 47.92,-76.008 c 10.93,-17.6015 19.84,-33.4296 26.76,-48.8124 l 0.67,0.2227 c -1.79,20.0585 -2.23,38.3398 -2.23,61.5197 v 63.078 h 18.28 V 27.6406 h -19.62 l -47.7,76.2304 c -10.49,16.731 -20.52,33.891 -27.87,50.168 l -0.66,-0.23 c 1.12,-18.95 1.34,-37.008 1.34,-61.9692 V 27.6406 h -18.29"
         style="fill:#53c27d;fill-opacity:1;fill-rule:nonzero;stroke:none"
         transform="matrix(0.13333333,0,0,-0.13333333,0,233.29333)" />
      <path
         id="path34"
         d="m 3937.08,51.2813 c 8.69,-5.3594 21.17,-9.5899 34.54,-9.5899 19.85,0 31.44,10.25 31.44,25.4102 0,14.0468 -8.02,22.2773 -28.3,29.8672 -24.54,8.4802 -39.69,21.4022 -39.69,42.3512 0,23.41 19.39,40.801 48.6,40.801 15.15,0 26.52,-3.582 32.99,-7.133 l -5.35,-16.047 c -4.68,2.899 -14.71,7.129 -28.32,7.129 -20.5,0 -28.29,-12.261 -28.29,-22.519 0,-13.821 9.13,-20.731 29.85,-28.75 25.42,-10.031 38.13,-22.0822 38.13,-44.1408 0,-22.961 -16.95,-43.2618 -52.39,-43.2618 -14.49,0 -30.32,4.4805 -38.33,9.8125 l 5.12,16.0704"
         style="fill:#53c27d;fill-opacity:1;fill-rule:nonzero;stroke:none"
         transform="matrix(0.13333333,0,0,-0.13333333,0,233.29333)" />
      <path
         id="path35"
         d="M 4068.86,177.879 V 27.6406 h -19.61 V 177.879 h 19.61"
         style="fill:#53c27d;fill-opacity:1;fill-rule:nonzero;stroke:none"
         transform="matrix(0.13333333,0,0,-0.13333333,0,233.29333)" />
      <path
         id="path36"
         d="m 4135.77,27.6406 -49.28,150.2384 h 21.18 l 23.42,-74.008 c 6.24,-20.2812 11.81,-38.7812 16.05,-56.1718 h 0.44 c 4.23,17.3906 10.25,36.3516 17.16,55.9488 l 25.42,74.231 h 20.74 L 4157.17,27.6406 h -21.4"
         style="fill:#53c27d;fill-opacity:1;fill-rule:nonzero;stroke:none"
         transform="matrix(0.13333333,0,0,-0.13333333,0,233.29333)" />
      <path
         id="path37"
         d="m 4304.78,98.0781 h -58.19 V 43.9102 h 65.1 V 27.6406 h -84.7 V 177.879 h 81.36 v -16.258 h -61.76 v -47.48 h 58.19 V 98.0781"
         style="fill:#53c27d;fill-opacity:1;fill-rule:nonzero;stroke:none"
         transform="matrix(0.13333333,0,0,-0.13333333,0,233.29333)" />
      <path
         id="path38"
         d="M 239.547,583.301 H 136.105 V 364.73 h 103.442 v 218.571"
         style="fill:#53c27d;fill-opacity:1;fill-rule:nonzero;stroke:none"
         transform="matrix(0.13333333,0,0,-0.13333333,0,233.29333)" />
      <path
         id="path39"
         d="M 103.441,443.398 H 0 V 265.75 h 103.441 v 177.648"
         style="fill:#53c27d;fill-opacity:1;fill-rule:nonzero;stroke:none"
         transform="matrix(0.13333333,0,0,-0.13333333,0,233.29333)" />
      <path
         id="path40"
         d="M 272.215,625.949 V 269.301 H 375.652 V 625.949 H 272.215"
         style="fill:#53c27d;fill-opacity:1;fill-rule:nonzero;stroke:none"
         transform="matrix(0.13333333,0,0,-0.13333333,0,233.29333)" />
      <path
         id="path41"
         d="M 511.758,871.273 H 408.316 V 459.73 h 103.442 v 411.543"
         style="fill:#53c27d;fill-opacity:1;fill-rule:nonzero;stroke:none"
         transform="matrix(0.13333333,0,0,-0.13333333,0,233.29333)" />
      <path
         id="path42"
         d="m 544.426,854.941 v -585.64 h 103.437 v 585.64 H 544.426"
         style="fill:#53c27d;fill-opacity:1;fill-rule:nonzero;stroke:none"
         transform="matrix(0.13333333,0,0,-0.13333333,0,233.29333)" />
      <path
         id="path43"
         d="M 783.969,1159.25 H 680.527 V 447.621 h 103.442 v 711.629"
         style="fill:#53c27d;fill-opacity:1;fill-rule:nonzero;stroke:none"
         transform="matrix(0.13333333,0,0,-0.13333333,0,233.29333)" />
      <path
         id="path44"
         d="M 816.637,1142.91 V 269.301 H 920.074 V 1142.91 H 816.637"
         style="fill:#53c27d;fill-opacity:1;fill-rule:nonzero;stroke:none"
         transform="matrix(0.13333333,0,0,-0.13333333,0,233.29333)" />
      <path
         id="path45"
         d="M 1464.5,1303.23 H 1361.06 V 863.633 h 103.44 v 439.597"
         style="fill:#53c27d;fill-opacity:1;fill-rule:nonzero;stroke:none"
         transform="matrix(0.13333333,0,0,-0.13333333,0,233.29333)" />
      <path
         id="path46"
         d="m 1872.82,1749.72 h -103.44 v -365.61 h 103.44 v 365.61"
         style="fill:#53c27d;fill-opacity:1;fill-rule:nonzero;stroke:none"
         transform="matrix(0.13333333,0,0,-0.13333333,0,233.29333)" />
      <path
         id="path47"
         d="m 1736.71,1506.34 h -103.44 v -474.75 h 103.44 v 474.75"
         style="fill:#53c27d;fill-opacity:1;fill-rule:nonzero;stroke:none"
         transform="matrix(0.13333333,0,0,-0.13333333,0,233.29333)" />
      <path
         id="path48"
         d="m 4080.45,269.301 h 103.44 V 498.289 H 4080.45 V 269.301"
         style="fill:#53c27d;fill-opacity:1;fill-rule:nonzero;stroke:none"
         transform="matrix(0.13333333,0,0,-0.13333333,0,233.29333)" />
      <path
         id="path49"
         d="M 4216.56,269.301 H 4320 V 433.469 H 4216.56 V 269.301"
         style="fill:#53c27d;fill-opacity:1;fill-rule:nonzero;stroke:none"
         transform="matrix(0.13333333,0,0,-0.13333333,0,233.29333)" />
      <path
         id="path50"
         d="M 4047.79,727.289 H 3944.35 V 440.57 h 103.44 v 286.719"
         style="fill:#53c27d;fill-opacity:1;fill-rule:nonzero;stroke:none"
         transform="matrix(0.13333333,0,0,-0.13333333,0,233.29333)" />
      <path
         id="path51"
         d="M 3808.24,658.922 V 269.301 h 103.44 v 389.621 h -103.44"
         style="fill:#53c27d;fill-opacity:1;fill-rule:nonzero;stroke:none"
         transform="matrix(0.13333333,0,0,-0.13333333,0,233.29333)" />
      <path
         id="path52"
         d="M 3775.58,1015.26 H 3672.14 V 798.41 h 103.44 v 216.85"
         style="fill:#53c27d;fill-opacity:1;fill-rule:nonzero;stroke:none"
         transform="matrix(0.13333333,0,0,-0.13333333,0,233.29333)" />
      <path
         id="path53"
         d="M 3639.47,978.996 H 3536.03 V 426.301 h 103.44 v 552.695"
         style="fill:#53c27d;fill-opacity:1;fill-rule:nonzero;stroke:none"
         transform="matrix(0.13333333,0,0,-0.13333333,0,233.29333)" />
      <path
         id="path54"
         d="m 3399.92,730.602 h 103.44 V 1191.12 H 3399.92 V 730.602"
         style="fill:#53c27d;fill-opacity:1;fill-rule:nonzero;stroke:none"
         transform="matrix(0.13333333,0,0,-0.13333333,0,233.29333)" />
      <path
         id="path55"
         d="m 2414.52,1059.6 v 447.96 H 2311.08 V 1059.6 h 103.44"
         style="fill:#53c27d;fill-opacity:1;fill-rule:nonzero;stroke:none"
         transform="matrix(0.13333333,0,0,-0.13333333,0,233.29333)" />
      <path
         id="path56"
         d="m 1510.12,811.602 c 0,23.183 18.8,41.98 41.99,41.98 23.18,0 41.98,-18.797 41.98,-41.98 0,-23.188 -18.8,-41.981 -41.98,-41.981 -23.19,0 -41.99,18.793 -41.99,41.981"
         style="fill:#11282e;fill-opacity:1;fill-rule:nonzero;stroke:none"
         transform="matrix(0.13333333,0,0,-0.13333333,0,233.29333)" />
      <path
         id="path57"
         d="m 1651.11,811.602 c 0,23.183 18.8,41.98 41.98,41.98 23.19,0 41.98,-18.797 41.98,-41.98 0,-23.188 -18.79,-41.981 -41.98,-41.981 -23.18,0 -41.98,18.793 -41.98,41.981"
         style="fill:#11282e;fill-opacity:1;fill-rule:nonzero;stroke:none"
         transform="matrix(0.13333333,0,0,-0.13333333,0,233.29333)" />
      <path
         id="path58"
         d="m 1004.46,353.469 h 39.12 v 286.609 h -39.12 c -24.042,0 -44.413,15.551 -51.718,37.133 V 316.34 c 7.305,21.57 27.676,37.129 51.718,37.129"
         style="fill:#53c27d;fill-opacity:1;fill-rule:nonzero;stroke:none"
         transform="matrix(0.13333333,0,0,-0.13333333,0,233.29333)" />
      <path
         id="path59"
         d="m 1004.46,778.875 h 51.72 V 1159.25 H 952.742 V 741.738 c 7.305,21.582 27.676,37.137 51.718,37.137"
         style="fill:#53c27d;fill-opacity:1;fill-rule:nonzero;stroke:none"
         transform="matrix(0.13333333,0,0,-0.13333333,0,233.29333)" />
      <path
         id="path60"
         d="m 1253.69,765.262 c 25.77,15.215 51.83,20.468 74.7,21.035 v 240.633 h -103.44 v -242.5 c 7.32,-2.012 14.25,-5.496 20.26,-10.438 3.17,-2.605 6.01,-5.539 8.48,-8.73"
         style="fill:#53c27d;fill-opacity:1;fill-rule:nonzero;stroke:none"
         transform="matrix(0.13333333,0,0,-0.13333333,0,233.29333)" />
      <path
         id="path61"
         d="M 1600.61,883.984 V 1233.32 H 1497.16 V 879.195 c 15.01,12.219 34.13,19.571 54.94,19.571 17.94,0 34.63,-5.453 48.51,-14.782"
         style="fill:#53c27d;fill-opacity:1;fill-rule:nonzero;stroke:none"
         transform="matrix(0.13333333,0,0,-0.13333333,0,233.29333)" />
      <path
         id="path62"
         d="m 1775.32,782.945 c 24.82,-5.16 43.47,-27.148 43.47,-53.496 v -63.187 h 7.33 c 15.02,0 28.4,-6.653 37.64,-17.071 V 961.32 h -28.12 c -30.18,0 -54.64,24.469 -54.64,54.64 v 29.52 c 0,30.17 24.46,54.64 54.64,54.64 h 37.18 v 54.29 H 1769.38 V 853.688 c 6.91,-12.489 10.88,-26.825 10.88,-42.083 0,-10.05 -1.8,-19.667 -4.94,-28.66"
         style="fill:#53c27d;fill-opacity:1;fill-rule:nonzero;stroke:none"
         transform="matrix(0.13333333,0,0,-0.13333333,0,233.29333)" />
      <path
         id="path63"
         d="m 2085.92,1054.16 v -79.84 h 58.2 v 489.48 h -103.44 v -355.9 c 8.82,-1.54 17.26,-5.17 24.46,-10.86 13.13,-10.36 20.78,-26.16 20.78,-42.88"
         style="fill:#53c27d;fill-opacity:1;fill-rule:nonzero;stroke:none"
         transform="matrix(0.13333333,0,0,-0.13333333,0,233.29333)" />
      <path
         id="path64"
         d="m 3263.82,639.559 c 12.92,-31.379 20.3,-66.688 21.93,-105.789 0.04,-0.942 -0.02,-1.872 -0.03,-2.809 h 81.54 V 927.582 H 3263.82 V 639.559"
         style="fill:#53c27d;fill-opacity:1;fill-rule:nonzero;stroke:none"
         transform="matrix(0.13333333,0,0,-0.13333333,0,233.29333)" />
      <path
         id="path65"
         d="m 3127.71,790.195 v -15.14 c 28.33,-11.676 54.67,-28.864 78.76,-51.625 9.08,-8.59 17.14,-17.969 24.68,-27.719 V 1054.21 H 3127.71 V 942.383 c 15.25,-21.508 24.3,-47.723 24.3,-76.094 0,-28.371 -9.05,-54.586 -24.3,-76.094"
         style="fill:#53c27d;fill-opacity:1;fill-rule:nonzero;stroke:none"
         transform="matrix(0.13333333,0,0,-0.13333333,0,233.29333)" />
      <path
         id="path66"
         d="M 3095.05,974.738 V 1369.9 H 2991.61 V 994.926 c 9.21,2.039 18.75,3.195 28.57,3.195 27.82,0 53.59,-8.668 74.87,-23.383"
         style="fill:#53c27d;fill-opacity:1;fill-rule:nonzero;stroke:none"
         transform="matrix(0.13333333,0,0,-0.13333333,0,233.29333)" />
      <path
         id="path67"
         d="m 2550.62,1001.07 v 376.61 H 2447.18 V 863.961 c 16.18,13.644 32.51,23.391 48.39,30.465 12.48,39.441 30.25,74.543 53.58,104.82 0.49,0.629 0.99,1.204 1.47,1.824"
         style="fill:#53c27d;fill-opacity:1;fill-rule:nonzero;stroke:none"
         transform="matrix(0.13333333,0,0,-0.13333333,0,233.29333)" />
      <path
         id="path68"
         d="m 2822.83,1096.03 v 377.65 h -103.44 v -367.4 c 11.37,1.61 22.96,2.52 34.81,2.52 24.55,0 47.46,-4.37 68.63,-12.77"
         style="fill:#53c27d;fill-opacity:1;fill-rule:nonzero;stroke:none"
         transform="matrix(0.13333333,0,0,-0.13333333,0,233.29333)" />
      <path
         id="path69"
         d="m 2008.92,1105.4 v 400.94 h -103.44 v -406.22 h 9.45 c 49.14,0 77.61,2.56 93.99,5.28"
         style="fill:#53c27d;fill-opacity:1;fill-rule:nonzero;stroke:none"
         transform="matrix(0.13333333,0,0,-0.13333333,0,233.29333)" />
      <path
         id="path70"
         d="m 1449.21,719.82 c 4.75,5.668 9.83,11.149 15.29,16.41 v 94.735 h -103.44 v -47.227 c 25.62,-4.894 48.13,-16.527 66.06,-34.449 8.96,-8.961 16.32,-18.848 22.09,-29.469"
         style="fill:#53c27d;fill-opacity:1;fill-rule:nonzero;stroke:none"
         transform="matrix(0.13333333,0,0,-0.13333333,0,233.29333)" />
      <path
         id="path71"
         d="M 1736.71,886.953 V 998.926 H 1633.27 V 874.832 c 15.63,14.793 36.65,23.934 59.82,23.934 15.9,0 30.77,-4.348 43.62,-11.813"
         style="fill:#53c27d;fill-opacity:1;fill-rule:nonzero;stroke:none"
         transform="matrix(0.13333333,0,0,-0.13333333,0,233.29333)" />
      <path
         id="path72"
         d="m 3263.82,487.699 v -20.89 c 3.63,-2.719 7.05,-5.731 9.95,-9.34 10.37,-12.918 14.32,-29.848 10.74,-46.02 -5.15,-23.23 -12.16,-44.449 -20.69,-63.961 v -78.187 h 103.44 v 228.988 h -92.73 c -1.23,-1.598 -2.53,-3.148 -3.93,-4.617 -2.11,-2.192 -4.38,-4.184 -6.78,-5.973"
         style="fill:#53c27d;fill-opacity:1;fill-rule:nonzero;stroke:none"
         transform="matrix(0.13333333,0,0,-0.13333333,0,233.29333)" />
      <path
         id="path73"
         d="M 136.105,269.301 H 239.547 V 332.07 H 136.105 v -62.769"
         style="fill:#11282e;fill-opacity:1;fill-rule:nonzero;stroke:none"
         transform="matrix(0.13333333,0,0,-0.13333333,0,233.29333)" />
      <path
         id="path74"
         d="m 272.211,658.609 h 103.441 v 68.68 H 272.211 v -68.68"
         style="fill:#11282e;fill-opacity:1;fill-rule:nonzero;stroke:none"
         transform="matrix(0.13333333,0,0,-0.13333333,0,233.29333)" />
      <path
         id="path75"
         d="M 408.316,269.301 H 511.758 V 427.07 H 408.316 V 269.301"
         style="fill:#11282e;fill-opacity:1;fill-rule:nonzero;stroke:none"
         transform="matrix(0.13333333,0,0,-0.13333333,0,233.29333)" />
      <path
         id="path76"
         d="M 544.426,887.605 H 647.863 V 1015.26 H 544.426 V 887.605"
         style="fill:#11282e;fill-opacity:1;fill-rule:nonzero;stroke:none"
         transform="matrix(0.13333333,0,0,-0.13333333,0,233.29333)" />
      <path
         id="path77"
         d="m 680.527,269.301 h 103.446 v 145.66 H 680.527 v -145.66"
         style="fill:#11282e;fill-opacity:1;fill-rule:nonzero;stroke:none"
         transform="matrix(0.13333333,0,0,-0.13333333,0,233.29333)" />
      <path
         id="path78"
         d="m 816.637,1175.58 h 103.437 v 127.65 H 816.637 v -127.65"
         style="fill:#11282e;fill-opacity:1;fill-rule:nonzero;stroke:none"
         transform="matrix(0.13333333,0,0,-0.13333333,0,233.29333)" />
      <path
         id="path79"
         d="M 1192.29,1015.26 H 1088.85 V 835.262 h 103.44 v 179.998"
         style="fill:#11282e;fill-opacity:1;fill-rule:nonzero;stroke:none"
         transform="matrix(0.13333333,0,0,-0.13333333,0,233.29333)" />
      <path
         id="path80"
         d="m 1328.39,1159.25 h -103.44 v -99.65 h 103.44 v 99.65"
         style="fill:#11282e;fill-opacity:1;fill-rule:nonzero;stroke:none"
         transform="matrix(0.13333333,0,0,-0.13333333,0,233.29333)" />
      <path
         id="path81"
         d="m 1600.61,1447.22 h -103.45 v -181.24 h 103.45 v 181.24"
         style="fill:#11282e;fill-opacity:1;fill-rule:nonzero;stroke:none"
         transform="matrix(0.13333333,0,0,-0.13333333,0,233.29333)" />
      <path
         id="path82"
         d="m 1872.82,1351.45 h -103.44 v -164.38 h 103.44 v 164.38"
         style="fill:#11282e;fill-opacity:1;fill-rule:nonzero;stroke:none"
         transform="matrix(0.13333333,0,0,-0.13333333,0,233.29333)" />
      <path
         id="path83"
         d="m 1736.71,1631.96 h -103.44 v -92.95 h 103.44 v 92.95"
         style="fill:#11282e;fill-opacity:1;fill-rule:nonzero;stroke:none"
         transform="matrix(0.13333333,0,0,-0.13333333,0,233.29333)" />
      <path
         id="path84"
         d="m 4080.45,583.301 v -52.34 h 103.44 v 52.34 h -103.44"
         style="fill:#11282e;fill-opacity:1;fill-rule:nonzero;stroke:none"
         transform="matrix(0.13333333,0,0,-0.13333333,0,233.29333)" />
      <path
         id="path85"
         d="m 3944.35,269.301 h 103.44 V 407.898 H 3944.35 V 269.301"
         style="fill:#11282e;fill-opacity:1;fill-rule:nonzero;stroke:none"
         transform="matrix(0.13333333,0,0,-0.13333333,0,233.29333)" />
      <path
         id="path86"
         d="m 3808.24,691.59 h 103.44 V 871.273 H 3808.24 V 691.59"
         style="fill:#11282e;fill-opacity:1;fill-rule:nonzero;stroke:none"
         transform="matrix(0.13333333,0,0,-0.13333333,0,233.29333)" />
      <path
         id="path87"
         d="m 3672.14,590.988 h 103.44 V 765.746 H 3672.14 V 590.988"
         style="fill:#11282e;fill-opacity:1;fill-rule:nonzero;stroke:none"
         transform="matrix(0.13333333,0,0,-0.13333333,0,233.29333)" />
      <path
         id="path88"
         d="m 3672.14,269.301 h 103.44 V 558.328 H 3672.14 V 269.301"
         style="fill:#11282e;fill-opacity:1;fill-rule:nonzero;stroke:none"
         transform="matrix(0.13333333,0,0,-0.13333333,0,233.29333)" />
      <path
         id="path89"
         d="m 3536.03,1011.66 h 103.44 v 147.59 h -103.44 v -147.59"
         style="fill:#11282e;fill-opacity:1;fill-rule:nonzero;stroke:none"
         transform="matrix(0.13333333,0,0,-0.13333333,0,233.29333)" />
      <path
         id="path90"
         d="m 3536.03,269.301 h 103.44 V 393.629 H 3536.03 V 269.301"
         style="fill:#11282e;fill-opacity:1;fill-rule:nonzero;stroke:none"
         transform="matrix(0.13333333,0,0,-0.13333333,0,233.29333)" />
      <path
         id="path91"
         d="m 3263.82,960.246 h 103.44 V 1159.25 H 3263.82 V 960.246"
         style="fill:#11282e;fill-opacity:1;fill-rule:nonzero;stroke:none"
         transform="matrix(0.13333333,0,0,-0.13333333,0,233.29333)" />
      <path
         id="path92"
         d="m 3399.92,269.301 h 103.44 v 428.64 h -103.44 v -428.64"
         style="fill:#11282e;fill-opacity:1;fill-rule:nonzero;stroke:none"
         transform="matrix(0.13333333,0,0,-0.13333333,0,233.29333)" />
      <path
         id="path93"
         d="m 3399.92,1223.79 h 103.44 v 79.44 h -103.44 v -79.44"
         style="fill:#11282e;fill-opacity:1;fill-rule:nonzero;stroke:none"
         transform="matrix(0.13333333,0,0,-0.13333333,0,233.29333)" />
      <path
         id="path94"
         d="m 3231.15,1225.91 h -103.44 v -139.03 h 103.44 v 139.03"
         style="fill:#11282e;fill-opacity:1;fill-rule:nonzero;stroke:none"
         transform="matrix(0.13333333,0,0,-0.13333333,0,233.29333)" />
      <path
         id="path95"
         d="m 2920.57,965.02 c 0,-4.543 -0.31,-8.993 -0.77,-13.387 10.89,12.789 24.15,23.465 39.14,31.347 v 351.16 H 2855.5 v -255.23 c 3.66,-2.46 7.29,-5.01 10.81,-7.77 44.84,-35.09 54.26,-77.074 54.26,-106.12"
         style="fill:#11282e;fill-opacity:1;fill-rule:nonzero;stroke:none"
         transform="matrix(0.13333333,0,0,-0.13333333,0,233.29333)" />
      <path
         id="path96"
         d="M 2958.94,1513.88 H 2855.5 v -147.07 h 103.44 v 147.07"
         style="fill:#11282e;fill-opacity:1;fill-rule:nonzero;stroke:none"
         transform="matrix(0.13333333,0,0,-0.13333333,0,233.29333)" />
      <path
         id="path97"
         d="m 2550.62,1507.56 h -103.44 v -97.21 h 103.44 v 97.21"
         style="fill:#11282e;fill-opacity:1;fill-rule:nonzero;stroke:none"
         transform="matrix(0.13333333,0,0,-0.13333333,0,233.29333)" />
      <path
         id="path98"
         d="m 2279.32,1507.56 h -103.44 v -134.63 h 103.44 v 134.63"
         style="fill:#11282e;fill-opacity:1;fill-rule:nonzero;stroke:none"
         transform="matrix(0.13333333,0,0,-0.13333333,0,233.29333)" />
      <path
         id="path99"
         d="m 2822.83,1669 h -103.44 v -162.66 h 103.44 V 1669"
         style="fill:#11282e;fill-opacity:1;fill-rule:nonzero;stroke:none"
         transform="matrix(0.13333333,0,0,-0.13333333,0,233.29333)" />
      <path
         id="path100"
         d="m 2686.73,1507.56 v 124.4 h -103.44 v -594.43 c 31.25,30.09 65.83,50.67 103.44,61.7 v 408.33"
         style="fill:#11282e;fill-opacity:1;fill-rule:nonzero;stroke:none"
         transform="matrix(0.13333333,0,0,-0.13333333,0,233.29333)" />
      <path
         id="path101"
         d="m 2008.92,1631.96 h -103.44 v -92.95 h 103.44 v 92.95"
         style="fill:#11282e;fill-opacity:1;fill-rule:nonzero;stroke:none"
         transform="matrix(0.13333333,0,0,-0.13333333,0,233.29333)" />
      <path
         id="path102"
         d="m 2942.99,866.289 c 0,42.633 34.56,77.191 77.19,77.191 42.63,0 77.19,-34.558 77.19,-77.191 0,-42.633 -34.56,-77.191 -77.19,-77.191 -42.63,0 -77.19,34.558 -77.19,77.191"
         style="fill:#11282e;fill-opacity:1;fill-rule:nonzero;stroke:none"
         transform="matrix(0.13333333,0,0,-0.13333333,0,233.29333)" />
      <path
         id="path103"
         d="m 1348.27,597.469 c 18.14,0 32.9,5.691 44.28,17.09 11.38,11.371 17.08,26.32 17.08,44.851 0,20.059 -7.05,37.129 -21.13,51.231 -14.09,14.078 -32.7,21.129 -55.85,21.129 -52.88,0 -92.81,-36.469 -119.82,-109.411 h -2.31 V 731.77 c -25.47,-5.032 -62.52,-7.54 -111.14,-7.54 h -94.92 v -29.511 h 93.77 V 298.82 h -93.77 v -29.519 h 302.14 v 29.519 h -96.08 v 177.692 c 0,70.609 9.83,123.09 29.52,157.429 19.68,34.348 35.88,51.52 48.61,51.52 8.11,0 12.16,-4.441 12.16,-13.32 l -2.31,-24.891 c 0,-33.191 16.58,-49.781 49.77,-49.781"
         style="fill:#11282e;fill-opacity:1;fill-rule:nonzero;stroke:none"
         transform="matrix(0.13333333,0,0,-0.13333333,0,233.29333)" />
      <path
         id="path104"
         d="m 1627.55,570.27 c -52.48,6.949 -85.76,15.339 -99.85,25.191 -14.08,9.828 -21.12,23.23 -21.12,40.219 0,20.058 9.93,37.91 29.81,53.539 19.86,15.633 44.65,23.429 74.38,23.429 68.68,0 111.89,-37.617 129.64,-112.859 h 23.74 v 129.66 h -17.95 c -8.09,-15.051 -16.02,-26.629 -23.72,-34.73 -30.1,29.32 -67.34,43.992 -111.71,43.992 -42.07,0 -77.67,-13.422 -106.79,-40.231 -29.14,-26.832 -43.71,-60.109 -43.71,-99.839 0,-80.661 54.21,-128.891 162.66,-144.7 63.66,-9.261 102.73,-19.312 117.19,-30.101 14.48,-10.809 21.71,-26.828 21.71,-48.051 0,-25.457 -12.16,-47.648 -36.47,-66.551 -24.3,-18.918 -51.32,-28.359 -81.03,-28.359 -78.33,0 -134.09,54.59 -167.27,163.801 H 1456.8 V 273.922 h 20.26 l 40.52,34.738 c 40.89,-35.89 83.14,-53.84 126.75,-53.84 44.37,0 81.52,15.051 111.42,45.149 29.91,30.109 44.87,67.73 44.87,112.871 0,90.68 -57.69,143.148 -173.07,157.43"
         style="fill:#11282e;fill-opacity:1;fill-rule:nonzero;stroke:none"
         transform="matrix(0.13333333,0,0,-0.13333333,0,233.29333)" />
      <path
         id="path105"
         d="m 2031.28,1054.16 c -24.31,-5.79 -63.09,-8.68 -116.35,-8.68 h -79.29 v -29.52 h 82.76 V 298.82 h -82.76 v -29.519 h 277.25 v 29.519 h -81.61 v 755.34"
         style="fill:#11282e;fill-opacity:1;fill-rule:nonzero;stroke:none"
         transform="matrix(0.13333333,0,0,-0.13333333,0,233.29333)" />
      <path
         id="path106"
         d="m 2643.08,724.23 v 97.25 c 0,58.645 2.11,101.192 6.37,127.625 4.23,26.422 16.01,46.2 35.3,59.325 19.3,13.11 39.74,19.68 61.36,19.68 22.37,0 39.36,-5.2 50.93,-15.63 -25.47,-15.039 -38.2,-33.953 -38.2,-56.722 0,-14.668 5,-26.824 15.05,-36.465 10.03,-9.641 21.99,-14.461 35.88,-14.461 16.22,0 29.62,5.777 40.23,17.356 10.61,11.578 15.92,25.843 15.92,42.835 0,24.688 -11.1,45.727 -33.28,63.087 -22.19,17.37 -48.34,26.05 -78.44,26.05 -62.51,0 -116.43,-29.43 -161.77,-88.273 -45.35,-58.84 -66.46,-139.403 -63.37,-241.657 h -96.09 v -29.511 h 96.09 V 298.82 h -86.25 v -29.519 h 297.51 v 29.519 h -97.24 v 395.899 h 107.65 v 29.511 h -107.65"
         style="fill:#11282e;fill-opacity:1;fill-rule:nonzero;stroke:none"
         transform="matrix(0.13333333,0,0,-0.13333333,0,233.29333)" />
      <path
         id="path107"
         d="m 2938.27,629.891 c 0,25.468 7.91,45.629 23.74,60.48 15.82,14.859 37.62,22.277 65.4,22.277 55.95,0 83.93,-30.867 83.93,-92.609 0,-14.269 -1.55,-35.098 -4.63,-62.5 h -168.44 z m 101.87,-349.012 c -39.74,0 -67.34,13.203 -82.76,39.652 -15.44,26.418 -21.81,96.75 -19.11,210.957 h 292.88 c -2.7,64.832 -23.43,115.563 -62.22,152.231 -38.78,36.652 -84.03,54.992 -135.73,54.992 -59.43,0 -111.62,-23.16 -156.57,-69.473 -44.96,-46.297 -67.42,-103.41 -67.42,-171.308 0,-69.852 22.95,-127.84 68.87,-173.93 45.91,-46.121 99.93,-69.18 162.06,-69.18 43.61,0 83.16,13.7 118.67,41.11 35.5,27.39 59.61,69.832 72.34,127.332 h -24.89 c -28.93,-94.934 -84.31,-142.383 -166.12,-142.383"
         style="fill:#11282e;fill-opacity:1;fill-rule:nonzero;stroke:none"
         transform="matrix(0.13333333,0,0,-0.13333333,0,233.29333)" />
      <path
         id="path108"
         d="M 2332.27,298.82 V 793.352 H 2219.98 V 298.82 h -81.04 v -29.519 h 269.15 v 29.519 h -75.82"
         style="fill:#11282e;fill-opacity:1;fill-rule:nonzero;stroke:none"
         transform="matrix(0.13333333,0,0,-0.13333333,0,233.29333)" />
      <path
         id="path109"
         d="M 2279.32,1340.27 H 2175.88 V 880.336 h 103.44 v 459.934"
         style="fill:#53c27d;fill-opacity:1;fill-rule:nonzero;stroke:none"
         transform="matrix(0.13333333,0,0,-0.13333333,0,233.29333)" />
    </g>
  </g>
</svg>
