<?xml version="1.0" encoding="UTF-8" standalone="no"?>
<!-- Created with Inkscape (http://www.inkscape.org/) -->

<svg
   version="1.1"
   id="svg1"
   width="1277.0029"
   height="207.48021"
   viewBox="0 0 1277.003 207.48021"
   xmlns="http://www.w3.org/2000/svg"
   xmlns:svg="http://www.w3.org/2000/svg">
  <defs
     id="defs1" />
  <g
     id="g1"
     transform="translate(-1.8711622,-648.86302)">
    <g
       id="group-R5"
       transform="matrix(1.2342465,0,0,1.4023395,-89.653525,-296.83926)">
      <path
         id="path2"
         d="m 130.75972,749.91443 c 2.00791,-1.75858 4.92852,-3.429 6.87169,-3.429 0.12518,0 0.24605,0.007 0.36261,0.0216 0.42057,0.0514 0.9688,0.20668 1.47387,0.95753 2.26445,3.36361 -1.34684,9.3581 -3.00448,11.77995 -3.31775,4.84603 -7.4008,9.06967 -11.807,12.21375 -3.81109,2.71904 -7.65056,5.02236 -11.48016,6.88896 2.86388,-11.09683 9.95757,-21.75168 17.58347,-28.43279 z m 56.55346,-25.95956 -11.47214,-9.43633 -20.6496,9.43633 -22.40469,-36.16308 54.52643,29.64604 z m 4.6837,-9.25826 -0.36446,-7.35371 -37.11625,-19.55111 46.56383,11.88387 -8.23271,4.08935 4.72378,2.93857 17.4108,-8.30599 -95.96193,-24.0229 67.48354,35.65163 -0.13506,1.40535 -67.34848,-35.90736 34.14693,54.56401 22.26963,-9.96707 17.54584,14.43943 -0.73755,-14.86915 c 9.03995,5.73642 25.62932,18.65781 25.1631,36.0323 -0.41132,15.31756 -9.15649,28.71304 -9.2083,28.7942 -6.41966,9.0615 -18.28833,21.53974 -30.60964,26.88439 -18.96298,8.22483 -45.97674,11.79046 -59.70533,-5.22963 -5.375,-6.663 -6.80015,-14.7261 -5.69629,-22.83532 5.03336,-2.17897 10.08029,-5.06615 15.06185,-8.6201 4.80457,-3.42843 9.24098,-8.01172 12.82946,-13.25361 2.62213,-3.82954 6.50106,-11.02561 3.02297,-16.19218 -1.08227,-1.60736 -2.6579,-2.57949 -4.55728,-2.81187 -4.70159,-0.57977 -9.74728,3.61409 -10.71239,4.45952 -8.43621,7.39108 -15.32517,18.17905 -18.42708,28.85842 -0.4619,1.58985 -0.83746,3.16569 -1.12606,4.72109 -0.82204,0.32112 -1.64161,0.62181 -2.46056,0.90148 -5.992307,2.04584 -11.990157,3.0133 -15.269667,2.46506 -3.31529,-0.5535 -6.65709,-2.4744 -9.40934,-5.40771 -4.29026,-4.57337 -2.66284,-13.61852 0.0339,-19.975 0.9608,-2.26479 1.95674,-4.51907 2.95268,-6.77394 3.20428,-7.25854 6.51895,-14.76347 8.63232,-22.60353 1.03232,-3.83071 -0.43908,-7.26088 -3.83885,-8.9529 -2.521,-1.25413 -7.97062,-1.93258 -10.77036,-0.14013 l 2.4137,3.38055 c 1.03171,-0.66093 4.71145,-0.44432 6.35183,0.37133 2.17504,1.08248 1.97831,3.17912 1.66751,4.33224 -2.03567,7.55047 -5.28744,14.91586 -8.43252,22.03836 -1.00334,2.27238 -2.00668,4.54476 -2.97549,6.82707 -1.60461,3.78165 -6.29386,16.70421 0.7431,24.20564 3.39484,3.61818 7.6148,6.00383 11.88224,6.71672 4.03187,0.67377 10.730877,-0.34039 17.481707,-2.64547 0.1295,-0.0444 0.25839,-0.0893 0.38789,-0.13428 -0.69809,8.978 1.61139,17.12576 6.78967,23.5453 8.03352,9.96005 19.93179,13.67866 32.3789,13.67807 11.21437,-10e-4 22.87522,-3.0203 32.54603,-7.21533 13.12485,-5.69263 25.33947,-18.36238 32.42947,-28.37324 0.38604,-0.58211 9.45929,-14.44585 9.90207,-30.91185 0.56796,-21.14856 -21.09485,-36.04865 -29.71916,-41.13057"
         style="fill:#100f0d;fill-opacity:1;fill-rule:nonzero;stroke:none;stroke-width:0.0600046" />
      <path
         id="path3"
         d="m 250.5867,725.19611 12.384,47.24933 h 0.31467 l 12.85867,-47.24933 h 7.02 l 12.77866,47.24933 h 0.316 l 12.384,-47.24933 h 7.256 l -16.16933,56.32133 h -7.17867 l -12.77866,-46.93466 h -0.236 l -12.85734,46.93466 h -7.17866 l -16.17067,-56.32133 h 7.25733"
         style="fill:#100f0d;fill-opacity:1;fill-rule:nonzero;stroke:none;stroke-width:0.133333" />
      <path
         id="path4"
         d="m 337.98404,725.19611 h 6.39066 v 56.32133 h -6.39066 v -56.32133"
         style="fill:#100f0d;fill-opacity:1;fill-rule:nonzero;stroke:none;stroke-width:0.133333" />
      <path
         id="path5"
         d="m 371.74537,725.19611 h 6.39066 v 50.72 h 32.57734 v 5.60133 h -38.968 v -56.32133"
         style="fill:#100f0d;fill-opacity:1;fill-rule:nonzero;stroke:none;stroke-width:0.133333" />
      <path
         id="path6"
         d="m 433.6667,725.19611 h 6.38933 v 50.72 h 32.57734 v 5.60133 H 433.6667 v -56.32133"
         style="fill:#100f0d;fill-opacity:1;fill-rule:nonzero;stroke:none;stroke-width:0.133333" />
      <path
         id="path7"
         d="m 496.06003,725.19611 h 6.38933 v 56.32133 h -6.38933 v -56.32133"
         style="fill:#100f0d;fill-opacity:1;fill-rule:nonzero;stroke:none;stroke-width:0.133333" />
      <path
         id="path8"
         d="m 597.18403,725.19611 h 6.784 l 31.868,45.82933 h 0.236 v -45.82933 h 6.468 v 56.32133 h -6.62534 l -32.02533,-46.30266 h -0.23733 v 46.30266 h -6.468 v -56.32133"
         style="fill:#100f0d;fill-opacity:1;fill-rule:nonzero;stroke:none;stroke-width:0.133333" />
      <path
         id="path9"
         d="m 711.24403,725.19611 h 6.78266 l 31.868,45.82933 h 0.236 v -45.82933 h 6.468 v 56.32133 h -6.62666 l -32.024,-46.30266 h -0.236 v 46.30266 h -6.468 v -56.32133"
         style="fill:#100f0d;fill-opacity:1;fill-rule:nonzero;stroke:none;stroke-width:0.133333" />
      <path
         id="path10"
         d="m 824.35736,729.21878 c 3.944,3.20933 6.41466,7.888 7.41466,14.04133 h -6.468 c -0.84266,-4.20667 -2.73466,-7.46667 -5.68,-9.78133 -3.05066,-2.41867 -7.072,-3.62934 -12.068,-3.62934 -6.1,0 -10.96533,2.15867 -14.592,6.468 -3.57866,4.208 -5.36533,9.96667 -5.36533,17.276 0,7.1 1.736,12.7 5.20667,16.80134 3.732,4.36533 9.25466,6.54666 16.56533,6.54666 2.83867,0 5.784,-0.42 8.83333,-1.26266 2.628,-0.73467 4.996,-1.78534 7.1,-3.15467 v -14.356 h -17.66933 v -5.6 h 24.05733 v 23.03333 c -2.57733,2.104 -5.864,3.812 -9.85866,5.12667 -4.10267,1.26133 -8.468,1.89333 -13.09467,1.89333 -8.94133,0 -15.85467,-2.84 -20.74533,-8.51866 -4.576,-5.31067 -6.86267,-12.148 -6.86267,-20.50934 0,-8.41333 2.26,-15.30266 6.784,-20.66666 4.78533,-5.88934 11.33067,-8.83467 19.64133,-8.83467 7.1,0 12.7,1.70933 16.80134,5.12667"
         style="fill:#100f0d;fill-opacity:1;fill-rule:nonzero;stroke:none;stroke-width:0.133333" />
      <path
         id="path11"
         d="m 858.03736,725.19611 h 6.46933 v 34.78667 c 0,5.57466 1.23333,9.75466 3.70667,12.54133 2.628,2.94533 6.73066,4.41733 12.30533,4.41733 5.52133,0 9.624,-1.472 12.304,-4.41733 2.472,-2.89067 3.708,-7.072 3.708,-12.54133 v -34.78667 h 6.468 v 34.708 c 0,7.30933 -1.868,12.90933 -5.6,16.80133 -3.83867,3.94267 -9.46667,5.916 -16.88,5.916 -7.41467,0 -13.01467,-1.94533 -16.80267,-5.83733 -3.78533,-3.944 -5.67866,-9.57067 -5.67866,-16.88 v -34.708"
         style="fill:#100f0d;fill-opacity:1;fill-rule:nonzero;stroke:none;stroke-width:0.133333" />
      <path
         id="path12"
         d="m 932.42135,725.19611 17.90534,27.45067 17.90666,-27.45067 h 7.80667 l -22.48,33.44533 v 22.876 h -6.468 v -22.876 l -22.48,-33.44533 h 7.80933"
         style="fill:#100f0d;fill-opacity:1;fill-rule:nonzero;stroke:none;stroke-width:0.133333" />
      <path
         id="path13"
         d="m 997.65469,725.19611 h 39.91201 v 5.60133 h -33.444 v 18.852 h 31.5507 v 5.6 h -31.5507 v 20.66667 h 34.7853 v 5.60133 h -41.25331 v -56.32133"
         style="fill:#100f0d;fill-opacity:1;fill-rule:nonzero;stroke:none;stroke-width:0.133333" />
      <path
         id="path14"
         d="m 1063.44,725.19611 h 6.784 l 31.8667,45.82933 h 0.2373 v -45.82933 h 6.468 v 56.32133 h -6.6267 l -32.0239,-46.30266 h -0.2374 v 46.30266 h -6.468 v -56.32133"
         style="fill:#100f0d;fill-opacity:1;fill-rule:nonzero;stroke:none;stroke-width:0.133333" />
      <path
         id="path15"
         d="m 538.9187,760.85744 0.21066,-0.56 10.80534,-28.16 h 0.316 l 7.22933,19.096 c -0.144,0.0173 -10.816,1.284 -18.56133,9.624 z m 37.048,20.66 -22.16534,-56.32133 h -7.49466 l -22.16534,56.32133 h 6.94134 c 0,0 10.576,-19.292 29.53866,-21.988 l 8.324,21.988 h 7.02134"
         style="fill:#100f0d;fill-opacity:1;fill-rule:nonzero;stroke:none;stroke-width:0.133333" />
    </g>
  </g>
</svg>
