<?xml version="1.0" encoding="UTF-8" standalone="no"?>
<!-- Created with Inkscape (http://www.inkscape.org/) -->

<svg
   version="1.1"
   id="svg1"
   width="1277.3333"
   height="208"
   viewBox="0 0 1277.3333 208"
   xmlns="http://www.w3.org/2000/svg"
   xmlns:svg="http://www.w3.org/2000/svg">
  <defs
     id="defs1" />
  <g
     id="g1">
    <path
       id="path1"
       d="m 523.98,765.512 c 18.598,18.468 45.629,36.047 63.641,36.047 1.129,0 2.258,-0.079 3.32,-0.231 3.899,-0.508 8.981,-2.148 13.668,-10.039 20.942,-35.391 -12.461,-98.437 -27.808,-123.91 C 546.051,616.41 508.281,571.988 467.5,538.91 432.23,510.309 396.68,486.09 361.211,466.449 387.73,583.16 453.398,695.23 523.98,765.512 Z m 523.52,273.038 -106.211,99.22 -191.129,-99.22 -207.43,380.32 504.77,-311.8 z m 43.36,97.35 -3.4,77.34 -343.55,205.63 431.01,-124.96 -76.21,-43.01 43.75,-30.94 161.17,87.38 L 415.309,1560 1040,1185.04 l -1.25,-14.81 -623.441,377.66 316.101,-573.87 206.129,104.85 162.421,-151.882 -6.8,156.372 c 83.68,-60.31 237.23,-196.212 232.93,-378.95 -3.82,-161.09 -84.76,-301.988 -85.27,-302.851 C 1181.41,306.25 1071.56,175 957.5,118.789 781.949,32.3008 531.879,-5.19922 404.801,173.789 355.039,243.871 341.879,328.672 352.07,413.98 c 46.602,22.93 93.321,53.29 139.41,90.668 44.5,36.051 85.551,84.262 118.79,139.372 24.261,40.281 60.16,115.98 27.968,170.32 -10,16.91 -24.609,27.14 -42.187,29.57 C 552.539,850 505.82,805.898 496.91,796.988 418.789,719.262 355.039,605.82 326.328,493.48 c -4.297,-16.718 -7.777,-33.281 -10.43,-49.648 -7.617,-3.363 -15.199,-6.531 -22.777,-9.492 C 237.66,412.852 182.109,402.66 151.762,408.441 121.09,414.262 90.1602,434.449 64.6484,465.309 24.9609,513.398 40,608.551 65,675.391 c 8.8711,23.828 18.0898,47.539 27.3008,71.25 29.6872,76.328 60.3592,155.269 79.9292,237.738 9.571,40.271 -4.07,76.361 -35.55,94.141 -23.321,13.2 -73.7894,20.35 -99.6917,1.48 l 22.3515,-35.55 c 9.5313,6.96 43.5902,4.69 58.7812,-3.9 20.16,-11.37 18.328,-33.44 15.43,-45.55 C 114.73,915.59 84.6094,838.09 55.5117,763.199 46.2109,739.301 36.9102,715.391 27.9688,691.41 13.1211,651.602 -30.3086,515.699 34.8398,436.801 66.25,398.75 105.309,373.672 144.84,366.172 c 37.308,-7.113 99.34,3.558 161.801,27.808 1.211,0.469 2.418,0.942 3.589,1.411 C 303.789,300.98 325.16,215.27 373.09,147.77 447.461,43.0117 557.621,3.91016 672.809,3.91016 776.641,3.91016 884.57,35.6602 974.102,79.8008 1095.59,139.648 1208.67,272.93 1274.3,378.199 c 3.55,6.141 87.58,151.961 91.64,325.121 5.27,222.418 -195.24,379.14 -275.08,432.58"
       style="fill:#ffffff;fill-opacity:1;fill-rule:nonzero;stroke:none"
       transform="matrix(0.13333333,0,0,-0.13333333,0,208)" />
    <path
       id="path2"
       d="m 1633.2,1025.47 114.65,-496.919 h 2.89 l 119.06,496.919 h 64.97 l 118.28,-496.919 h 2.93 l 114.64,496.919 h 67.15 L 2088.12,433.121 h -66.44 l -118.32,493.641 h -2.19 L 1782.19,433.121 h -66.49 l -149.68,592.349 h 67.18"
       style="fill:#ffffff;fill-opacity:1;fill-rule:nonzero;stroke:none"
       transform="matrix(0.13333333,0,0,-0.13333333,0,208)" />
    <path
       id="path3"
       d="m 2442.23,433.129 h 59.1797 v 592.34 H 2442.23 Z"
       style="fill:#ffffff;fill-opacity:1;fill-rule:nonzero;stroke:none"
       transform="matrix(0.13333333,0,0,-0.13333333,0,208)" />
    <path
       id="path4"
       d="m 2754.77,1025.47 h 59.14 V 492.031 h 301.56 v -58.91 h -360.7 v 592.349"
       style="fill:#ffffff;fill-opacity:1;fill-rule:nonzero;stroke:none"
       transform="matrix(0.13333333,0,0,-0.13333333,0,208)" />
    <path
       id="path5"
       d="m 3327.97,1025.47 h 59.14 V 492.031 h 301.56 v -58.91 h -360.7 v 592.349"
       style="fill:#ffffff;fill-opacity:1;fill-rule:nonzero;stroke:none"
       transform="matrix(0.13333333,0,0,-0.13333333,0,208)" />
    <path
       id="path6"
       d="m 3905.51,433.129 h 59.1367 v 592.34 H 3905.51 Z"
       style="fill:#ffffff;fill-opacity:1;fill-rule:nonzero;stroke:none"
       transform="matrix(0.13333333,0,0,-0.13333333,0,208)" />
    <path
       id="path7"
       d="m 4841.6,1025.47 h 62.81 l 295,-481.99 h 2.19 v 481.99 h 59.85 V 433.121 h -61.33 l -296.45,487 h -2.19 v -487 h -59.88 v 592.349"
       style="fill:#ffffff;fill-opacity:1;fill-rule:nonzero;stroke:none"
       transform="matrix(0.13333333,0,0,-0.13333333,0,208)" />
    <path
       id="path8"
       d="m 5897.46,1025.47 h 62.77 l 295,-481.99 h 2.19 v 481.99 h 59.85 V 433.121 h -61.33 l -296.45,487 h -2.19 v -487 h -59.84 v 592.349"
       style="fill:#ffffff;fill-opacity:1;fill-rule:nonzero;stroke:none"
       transform="matrix(0.13333333,0,0,-0.13333333,0,208)" />
    <path
       id="path9"
       d="m 6944.53,983.16 c 36.49,-33.75 59.38,-82.961 68.63,-147.648 h -59.88 c -7.81,44.218 -25.31,78.508 -52.58,102.847 -28.24,25.43 -65.47,38.161 -111.72,38.161 -56.44,0 -101.48,-22.692 -135.07,-68 -33.13,-44.258 -49.65,-104.848 -49.65,-181.719 0,-74.653 16.05,-133.563 48.2,-176.68 34.53,-45.941 85.66,-68.871 153.32,-68.871 26.29,0 53.56,4.41 81.76,13.281 24.34,7.739 46.25,18.789 65.74,33.168 v 151.012 h -163.55 v 58.867 h 222.69 V 495.352 c -23.87,-22.153 -54.3,-40.122 -91.29,-53.942 -37.97,-13.25 -78.36,-19.89 -121.21,-19.89 -82.77,0 -146.76,29.851 -192.03,89.57 -42.34,55.859 -63.51,127.781 -63.51,215.711 0,88.508 20.93,160.969 62.81,217.379 44.29,61.95 104.88,92.93 181.79,92.93 65.75,0 117.58,-18.01 155.55,-53.95"
       style="fill:#ffffff;fill-opacity:1;fill-rule:nonzero;stroke:none"
       transform="matrix(0.13333333,0,0,-0.13333333,0,208)" />
    <path
       id="path10"
       d="m 7256.29,1025.47 h 59.88 V 659.609 c 0,-58.629 11.41,-102.578 34.3,-131.91 24.33,-30.98 62.3,-46.449 113.91,-46.449 51.13,0 89.1,15.469 113.9,46.449 22.89,30.422 34.34,74.371 34.34,131.91 v 365.861 h 59.88 V 660.43 c 0,-76.879 -17.3,-135.782 -51.84,-176.68 -35.54,-41.48 -87.65,-62.23 -156.28,-62.23 -68.64,0 -120.47,20.429 -155.51,61.371 -35.04,41.488 -52.58,100.66 -52.58,177.539 v 365.04"
       style="fill:#ffffff;fill-opacity:1;fill-rule:nonzero;stroke:none"
       transform="matrix(0.13333333,0,0,-0.13333333,0,208)" />
    <path
       id="path11"
       d="m 7944.84,1025.47 165.75,-288.708 165.78,288.708 h 72.26 L 8140.51,673.711 v -240.59 h -59.85 v 240.59 l -208.12,351.759 h 72.3"
       style="fill:#ffffff;fill-opacity:1;fill-rule:nonzero;stroke:none"
       transform="matrix(0.13333333,0,0,-0.13333333,0,208)" />
    <path
       id="path12"
       d="m 8548.71,1025.47 h 369.45 V 966.559 H 8608.59 V 768.281 h 292.03 V 709.41 H 8608.59 V 492.031 h 322 v -58.91 h -381.88 v 592.349"
       style="fill:#ffffff;fill-opacity:1;fill-rule:nonzero;stroke:none"
       transform="matrix(0.13333333,0,0,-0.13333333,0,208)" />
    <path
       id="path13"
       d="m 9157.66,1025.47 h 62.81 l 295,-481.99 h 2.19 v 481.99 h 59.88 V 433.121 h -61.37 l -296.44,487 h -2.19 v -487 h -59.88 v 592.349"
       style="fill:#ffffff;fill-opacity:1;fill-rule:nonzero;stroke:none"
       transform="matrix(0.13333333,0,0,-0.13333333,0,208)" />
    <path
       id="path14"
       d="m 4302.27,650.43 1.95,5.859 100,296.172 h 2.93 l 66.91,-200.82 c -1.33,-0.192 -100.11,-13.52 -171.79,-101.211 z M 4645.2,433.121 4440.04,1025.47 h -69.42 L 4165.47,433.121 h 64.26 c 0,0 97.89,202.899 273.43,231.258 l 77.04,-231.258 h 65"
       style="fill:#ffffff;fill-opacity:1;fill-rule:nonzero;stroke:none"
       transform="matrix(0.13333333,0,0,-0.13333333,0,208)" />
  </g>
</svg>
