<?xml version="1.0" encoding="UTF-8" standalone="no"?>
<!-- Created with Inkscape (http://www.inkscape.org/) -->

<svg
   version="1.1"
   id="svg1"
   width="865.46667"
   height="454.07199"
   viewBox="0 0 865.4667 454.072"
   xmlns="http://www.w3.org/2000/svg"
   xmlns:svg="http://www.w3.org/2000/svg">
  <defs
     id="defs1" />
  <g
     id="g1"
     transform="translate(-134.196,-339.88799)">
    <g
       id="group-R5">
      <path
         id="path2"
         d="m 545.20115,519.48123 c 4.34134,-4.016 10.656,-7.83066 14.85734,-7.83066 0.27066,0 0.532,0.016 0.784,0.0493 0.90933,0.11733 2.09466,0.472 3.18666,2.18667 4.896,7.68133 -2.912,21.37066 -6.496,26.90133 -7.17333,11.06666 -16.00133,20.712 -25.528,27.892 -8.24,6.20933 -16.54133,11.46933 -24.82133,15.732 6.192,-25.34134 21.52933,-49.67334 38.01733,-64.93067 z m 122.27467,-59.28266 -24.804,-21.54934 -44.64667,21.54934 -48.44133,-82.584 117.892,67.70133 z m 10.12666,-21.14267 -0.788,-16.79333 -80.24933,-44.648 100.676,27.13866 -17.8,9.33867 10.21333,6.71067 37.644,-18.968 -207.47999,-54.86 145.90666,81.416 -0.292,3.20933 -145.61466,-82 73.82933,124.60533 48.14933,-22.76133 37.936,32.97467 -1.59467,-33.956 c 19.54534,13.1 55.41333,42.608 54.40533,82.28533 -0.88933,34.98 -19.79733,65.57066 -19.90933,65.756 -13.88,20.69333 -39.54133,49.18933 -66.18133,61.39466 -41,18.78267 -99.40666,26.92533 -129.08933,-11.94266 -11.62133,-15.216 -14.70267,-33.62934 -12.316,-52.148 10.88267,-4.976 21.79467,-11.56934 32.56533,-19.68534 10.388,-7.82933 19.98,-18.296 27.73867,-30.26666 5.66933,-8.74534 14.056,-25.17867 6.536,-36.97733 -2.34,-3.67067 -5.74667,-5.89067 -9.85333,-6.42134 -10.16534,-1.324 -21.07467,8.25334 -23.16134,10.184 -18.24,16.87867 -33.13466,41.51467 -39.84133,65.90267 -0.99867,3.63066 -1.81067,7.22933 -2.43467,10.78133 -1.77733,0.73333 -3.54933,1.42 -5.32,2.05867 -12.956,4.672 -25.924,6.88133 -33.01466,5.62933 -7.168,-1.264 -14.39334,-5.65067 -20.344,-12.34933 -9.276,-10.444 -5.75733,-31.1 0.0733,-45.616 2.07733,-5.172 4.23067,-10.32 6.384,-15.46934 6.928,-16.57599 14.09467,-33.71466 18.664,-51.61866 2.232,-8.748 -0.94933,-16.58133 -8.3,-20.44533 -5.45067,-2.864 -17.23333,-4.41334 -23.28666,-0.32 l 5.21866,7.72 c 2.23067,-1.50934 10.18667,-1.01467 13.73333,0.848 4.70267,2.472 4.27734,7.26 3.60534,9.89333 -4.40134,17.24267 -11.432,34.06267 -18.232,50.328 -2.16933,5.18933 -4.33867,10.37866 -6.43333,15.59066 -3.46934,8.636 -13.608,38.14667 1.60666,55.27734 7.34,8.26266 16.464,13.71066 25.69067,15.33866 8.71733,1.53867 23.20133,-0.77733 37.79733,-6.04133 0.28,-0.10133 0.55867,-0.204 0.83867,-0.30667 -1.50934,20.50267 3.484,39.10934 14.68,53.76933 17.36933,22.74534 43.09466,31.23734 70.00666,31.236 24.24667,-0.003 49.45867,-6.89733 70.368,-16.47733 28.37733,-13 54.78666,-41.93333 70.116,-64.79466 0.83466,-1.32934 20.452,-32.98934 21.40933,-70.592 1.228,-48.296 -45.60933,-82.32267 -64.256,-93.928"
         style="fill:#000000;fill-opacity:1;fill-rule:nonzero;stroke:none;stroke-width:0.133333" />
      <path
         id="path3"
         d="m 1060.9,2979.89 92.88,-354.37 h 2.36 l 96.44,354.37 h 52.65 l 95.84,-354.37 h 2.37 l 92.88,354.37 h 54.42 l -121.27,-422.41 h -53.84 l -95.84,352.01 h -1.77 l -96.43,-352.01 h -53.84 l -121.28,422.41 h 54.43"
         style="fill:#000000;fill-opacity:1;fill-rule:nonzero;stroke:none"
         transform="matrix(0.13333333,0,0,-0.13333333,0,1133.8533)" />
      <path
         id="path4"
         d="m 1716.38,2979.89 h 47.93 v -422.41 h -47.93 v 422.41"
         style="fill:#000000;fill-opacity:1;fill-rule:nonzero;stroke:none"
         transform="matrix(0.13333333,0,0,-0.13333333,0,1133.8533)" />
      <path
         id="path5"
         d="m 1969.59,2979.89 h 47.93 v -380.4 h 244.33 v -42.01 h -292.26 v 422.41"
         style="fill:#000000;fill-opacity:1;fill-rule:nonzero;stroke:none"
         transform="matrix(0.13333333,0,0,-0.13333333,0,1133.8533)" />
      <path
         id="path6"
         d="m 2434,2979.89 h 47.92 v -380.4 h 244.33 v -42.01 H 2434 v 422.41"
         style="fill:#000000;fill-opacity:1;fill-rule:nonzero;stroke:none"
         transform="matrix(0.13333333,0,0,-0.13333333,0,1133.8533)" />
      <path
         id="path7"
         d="m 2901.95,2979.89 h 47.92 v -422.41 h -47.92 v 422.41"
         style="fill:#000000;fill-opacity:1;fill-rule:nonzero;stroke:none"
         transform="matrix(0.13333333,0,0,-0.13333333,0,1133.8533)" />
      <path
         id="path8"
         d="m 3660.38,2979.89 h 50.88 l 239.01,-343.72 h 1.77 v 343.72 h 48.51 v -422.41 h -49.69 l -240.19,347.27 h -1.78 v -347.27 h -48.51 v 422.41"
         style="fill:#000000;fill-opacity:1;fill-rule:nonzero;stroke:none"
         transform="matrix(0.13333333,0,0,-0.13333333,0,1133.8533)" />
      <path
         id="path9"
         d="m 4515.83,2979.89 h 50.87 l 239.01,-343.72 h 1.77 v 343.72 h 48.51 v -422.41 h -49.7 l -240.18,347.27 h -1.77 v -347.27 h -48.51 v 422.41"
         style="fill:#000000;fill-opacity:1;fill-rule:nonzero;stroke:none"
         transform="matrix(0.13333333,0,0,-0.13333333,0,1133.8533)" />
      <path
         id="path10"
         d="m 5364.18,2949.72 c 29.58,-24.07 48.11,-59.16 55.61,-105.31 h -48.51 c -6.32,31.55 -20.51,56 -42.6,73.36 -22.88,18.14 -53.04,27.22 -90.51,27.22 -45.75,0 -82.24,-16.19 -109.44,-48.51 -26.84,-31.56 -40.24,-74.75 -40.24,-129.57 0,-53.25 13.02,-95.25 39.05,-126.01 27.99,-32.74 69.41,-49.1 124.24,-49.1 21.29,0 43.38,3.15 66.25,9.47 19.71,5.51 37.47,13.39 53.25,23.66 v 107.67 h -132.52 v 42 h 180.43 v -172.75 c -19.33,-15.78 -43.98,-28.59 -73.94,-38.45 -30.77,-9.46 -63.51,-14.2 -98.21,-14.2 -67.06,0 -118.91,21.3 -155.59,63.89 -34.32,39.83 -51.47,91.11 -51.47,153.82 0,63.1 16.95,114.77 50.88,155 35.89,44.17 84.98,66.26 147.31,66.26 53.25,0 95.25,-12.82 126.01,-38.45"
         style="fill:#000000;fill-opacity:1;fill-rule:nonzero;stroke:none"
         transform="matrix(0.13333333,0,0,-0.13333333,0,1133.8533)" />
      <path
         id="path11"
         d="m 5616.78,2979.89 h 48.52 v -260.9 c 0,-41.81 9.25,-73.16 27.8,-94.06 19.71,-22.09 50.48,-33.13 92.29,-33.13 41.41,0 72.18,11.04 92.28,33.13 18.54,21.68 27.81,53.04 27.81,94.06 v 260.9 h 48.51 v -260.31 c 0,-54.82 -14.01,-96.82 -42,-126.01 -28.79,-29.57 -71,-44.37 -126.6,-44.37 -55.61,0 -97.61,14.59 -126.02,43.78 -28.39,29.58 -42.59,71.78 -42.59,126.6 v 260.31"
         style="fill:#000000;fill-opacity:1;fill-rule:nonzero;stroke:none"
         transform="matrix(0.13333333,0,0,-0.13333333,0,1133.8533)" />
      <path
         id="path12"
         d="m 6174.66,2979.89 134.29,-205.88 134.3,205.88 h 58.55 l -168.6,-250.84 v -171.57 h -48.51 v 171.57 l -168.6,250.84 h 58.57"
         style="fill:#000000;fill-opacity:1;fill-rule:nonzero;stroke:none"
         transform="matrix(0.13333333,0,0,-0.13333333,0,1133.8533)" />
      <path
         id="path13"
         d="m 6663.91,2979.89 h 299.34 v -42.01 h -250.83 v -141.39 h 236.63 v -42 h -236.63 v -155 h 260.89 v -42.01 h -309.4 v 422.41"
         style="fill:#000000;fill-opacity:1;fill-rule:nonzero;stroke:none"
         transform="matrix(0.13333333,0,0,-0.13333333,0,1133.8533)" />
      <path
         id="path14"
         d="m 7157.3,2979.89 h 50.88 l 239,-343.72 h 1.78 v 343.72 h 48.51 v -422.41 h -49.7 l -240.18,347.27 h -1.78 v -347.27 h -48.51 v 422.41"
         style="fill:#000000;fill-opacity:1;fill-rule:nonzero;stroke:none"
         transform="matrix(0.13333333,0,0,-0.13333333,0,1133.8533)" />
      <path
         id="path15"
         d="m 3223.39,2712.43 1.58,4.2 81.04,211.2 h 2.37 l 54.22,-143.22 c -1.08,-0.13 -81.12,-9.63 -139.21,-72.18 z m 277.86,-154.95 -166.24,422.41 h -56.21 l -166.24,-422.41 h 52.06 c 0,0 79.32,144.69 221.54,164.91 l 62.43,-164.91 h 52.66"
         style="fill:#000000;fill-opacity:1;fill-rule:nonzero;stroke:none"
         transform="matrix(0.13333333,0,0,-0.13333333,0,1133.8533)" />
    </g>
  </g>
</svg>
