<?xml version="1.0" encoding="UTF-8" standalone="no"?>
<!-- Created with Inkscape (http://www.inkscape.org/) -->

<svg
   version="1.1"
   id="svg1"
   width="1134.6667"
   height="1134.6667"
   viewBox="0 0 1134.6667 1134.6667"
   xmlns="http://www.w3.org/2000/svg"
   xmlns:svg="http://www.w3.org/2000/svg">
  <defs
     id="defs1" />
  <g
     id="g1">
    <path
       id="path2"
       d="m 3287.77,4183.71 c 112.66,95.59 276.57,186.33 385.59,186.33 7.03,0 13.83,-0.39 20.35,-1.17 23.67,-2.78 54.38,-11.21 82.77,-52.07 127.07,-182.74 -75.62,-508.56 -168.63,-640.16 -186.17,-263.32 -415.31,-492.89 -662.65,-663.75 -213.83,-147.73 -429.3,-272.89 -644.22,-374.37 160.66,603.08 558.82,1182.1 986.79,1545.19 z M 6461.6,5594.45 5817.77,6107.23 4658.87,5594.45 3401.48,7559.65 6461.6,5948.59 Z m 262.85,503.09 -20.47,399.69 -2082.96,1062.42 2613.2,-645.82 -462.07,-222.19 265.12,-159.73 977.11,451.37 -5385.51,1305.55 3787.3,-1937.46 -7.58,-76.41 -3779.72,1951.37 1916.36,-2965.2 1249.81,541.64 984.69,-784.72 -41.37,808.04 C 7245.66,5514.41 8176.72,4812.19 8150.55,3868.01 8127.42,3035.55 7636.68,2307.62 7633.75,2303.2 7273.52,1810.74 6607.42,1132.62 5915.9,842.191 4851.68,395.23 3335.66,201.449 2565.2,1126.37 c -301.65,362.15 -381.65,800.31 -319.69,1240.97 282.46,118.4 565.7,275.32 845.27,468.48 269.65,186.33 518.63,435.35 720,720.23 147.15,208.09 364.88,599.18 169.65,879.93 -60.74,87.38 -149.18,140.23 -255.74,152.81 -263.83,31.52 -547.03,-196.37 -601.17,-242.34 -473.48,-401.65 -860.12,-987.93 -1034.18,-1568.29 -25.9,-86.4 -46.96,-171.99 -63.21,-256.56 -46.09,-17.46 -92.15,-33.75 -138.04,-48.94 -336.33,-111.21 -672.93,-163.75 -856.96,-133.99 -186.052,30.12 -373.591,134.45 -528.079,293.91 -240.75,248.51 -149.461,740.04 1.91,1085.47 53.949,123.12 109.769,245.58 165.66,368.16 179.891,394.41 365.859,802.31 484.459,1228.36 57.97,208.13 -24.61,394.57 -215.389,486.48 -141.492,68.17 -447.351,105.04 -604.461,7.62 l 135.43,-183.71 c 57.891,35.94 264.461,24.14 356.488,-20.16 122.071,-58.82 111.051,-172.73 93.59,-235.39 C 806.52,4959.06 623.98,4558.83 447.5,4171.72 391.172,4048.24 334.84,3924.77 280.512,3800.7 190.43,3595.2 -72.6992,2892.93 322.191,2485.31 c 190.539,-196.64 427.34,-326.29 666.868,-365 226.251,-36.64 602.231,18.48 981.061,143.75 7.3,2.42 14.57,4.85 21.83,7.27 -39.22,-487.89 90.39,-930.67 381.02,-1279.49 450.82,-541.289 1118.55,-743.36 1817.15,-743.32 629.33,0 1283.75,164.14 1826.48,392.07 736.6,309.332 1422.07,997.89 1820,1541.91 21.68,31.64 530.9,785.04 555.74,1679.84 31.84,1149.34 -1183.9,1959.03 -1667.89,2235.2"
       style="fill:#ffffff;fill-opacity:1;fill-rule:nonzero;stroke:none"
       transform="matrix(0.13333333,0,0,-0.13333333,0,1134.6667)" />
  </g>
</svg>
