<?xml version="1.0" encoding="UTF-8" standalone="no"?>
<!-- Created with Inkscape (http://www.inkscape.org/) -->

<svg
   version="1.1"
   id="svg1"
   width="1133.8533"
   height="1133.8533"
   viewBox="0 0 1133.8533 1133.8533"
   xmlns="http://www.w3.org/2000/svg"
   xmlns:svg="http://www.w3.org/2000/svg">
  <defs
     id="defs1" />
  <g
     id="g1">
    <g
       id="group-R5"
       transform="matrix(3.465334,0,0,3.2693957,-1401.2134,-1288.6993)">
      <path
         id="path2"
         d="m 3973.37,4225.2 c 32.55,30.12 79.91,58.72 111.42,58.72 2.03,0 3.99,-0.12 5.88,-0.36 6.83,-0.88 15.71,-3.54 23.91,-16.41 36.72,-57.6 -21.85,-160.28 -48.72,-201.76 -53.8,-82.99 -120.01,-155.34 -191.47,-209.19 -61.79,-46.57 -124.05,-86.01 -186.15,-117.99 46.43,190.07 161.47,372.56 285.13,486.99 z m 917.06,444.62 -186.03,161.61 -334.86,-161.61 -363.31,619.37 884.2,-507.75 z m 75.95,158.56 -5.92,125.96 -601.86,334.85 755.07,-203.54 -133.51,-70.03 76.6,-50.34 282.33,142.26 -1556.1,411.46 1094.31,-610.62 -2.19,-24.08 -1092.12,615 553.72,-934.53 361.12,170.71 284.52,-247.32 -11.96,254.67 c 146.59,-98.24 415.61,-319.55 408.05,-617.13 -6.68,-262.36 -148.48,-491.79 -149.33,-493.17 -104.09,-155.21 -296.55,-368.93 -496.36,-460.47 -307.5,-140.87 -745.54,-201.94 -968.16,89.57 -87.16,114.13 -110.27,252.23 -92.37,391.11 81.61,37.32 163.45,86.77 244.23,147.65 77.92,58.72 149.86,137.21 208.04,226.99 42.52,65.59 105.43,188.84 49.02,277.33 -17.55,27.54 -43.1,44.19 -73.89,48.16 -76.24,9.93 -158.07,-61.89 -173.71,-76.38 -136.81,-126.59 -248.52,-311.36 -298.82,-494.27 -7.48,-27.23 -13.57,-54.21 -18.26,-80.86 -13.32,-5.5 -26.62,-10.64 -39.89,-15.43 -97.18,-35.05 -194.43,-51.61 -247.61,-42.23 -53.76,9.49 -107.95,42.38 -152.59,92.63 -69.56,78.33 -43.18,233.24 0.56,342.11 15.58,38.8 31.72,77.4 47.87,116.03 51.97,124.31 105.71,252.86 139.98,387.14 16.74,65.6 -7.11,124.36 -62.24,153.33 -40.88,21.48 -129.26,33.1 -174.65,2.4 l 39.13,-57.9 c 16.73,11.32 76.41,7.61 103,-6.36 35.27,-18.54 32.09,-54.44 27.04,-74.19 -33,-129.33 -85.74,-255.47 -136.74,-377.47 -16.27,-38.92 -32.54,-77.83 -48.24,-116.93 -26.03,-64.77 -102.06,-286.1 12.04,-414.57 55.05,-61.98 123.48,-102.83 192.69,-115.04 65.37,-11.55 174,5.83 283.47,45.31 2.1,0.76 4.2,1.52 6.3,2.29 -11.33,-153.77 26.12,-293.32 110.1,-403.26 130.26,-170.59 323.2,-234.28 525.05,-234.27 181.84,0.01 370.93,51.73 527.75,123.57 212.83,97.5 410.9,314.51 525.87,485.96 6.27,9.97 153.4,247.42 160.58,529.44 9.2,362.23 -342.08,617.42 -481.92,704.46"
         style="fill:#100f0d;fill-opacity:1;fill-rule:nonzero;stroke:none"
         transform="matrix(0.13333333,0,0,-0.13333333,0,1133.8533)" />
    </g>
  </g>
</svg>
